<svg viewBox="0 0 181.97 191.02" xmlns="http://www.w3.org/2000/svg"><path d="m179.1 84.17a8.76 8.76 0 0 0 -1.31-1l-.45-.45h-.34c-.22-.11-.44-.2-.67-.29a2.88 2.88 0 0 1 -.35-.26 2.11 2.11 0 0 1 -.3-.29l-.07-.12a5.53 5.53 0 0 0 -11 1.5 10.91 10.91 0 0 0 .4 1.85l-1.68.94-.33-.05a3.92 3.92 0 0 0 -3.1.64l-.26.19-1.83-2.52a25.77 25.77 0 0 0 -6-5.92l-5.78-4c-.1-.07-.2-.12-.3-.18l-1.89-1.31a4.26 4.26 0 0 0 1.07-5.9l-1.18-1.85.06-.46a7.44 7.44 0 0 0 -5.58-8.21l-.37-.57a4.85 4.85 0 0 0 -1.05-1.2 4 4 0 0 0 -.37-1.3l-1.22-2.71a3.76 3.76 0 0 0 -4-2.11 3.67 3.67 0 0 0 -3.08 3.4l-.2 2.89a4.36 4.36 0 0 0 1 3.26 4.91 4.91 0 0 0 1 3.25l.22.28a6 6 0 0 0 -.19.94l-.36 3-.32.13-.89-.15v.7a3.86 3.86 0 0 0 -1.33 2.4l-.68 5.31a9.52 9.52 0 0 0 4 9.09l5.42 3.77a4.25 4.25 0 0 0 1.77 4.23l3.12 2.19h.07l-4.75 6.38a35.16 35.16 0 0 0 -5 9.29 7 7 0 0 0 -6.49 3.28 7.11 7.11 0 0 0 -.88 5.42 7 7 0 0 0 3.29 4.44h.09a103.07 103.07 0 0 1 -9.61 20l-3.83 6.2-.09.28a2.59 2.59 0 0 0 -.17.74l-.75 1.22 1.25.62a2.81 2.81 0 0 0 .91.84l-.63 1a14.41 14.41 0 0 0 1.71 17.38l4.91 5.29.68.73a1.89 1.89 0 0 0 .25.31l1.35 1.44.2.21 1 1.06a2.17 2.17 0 0 0 .24.29l1.33 1.41.18.2 3.89 4.16a8.09 8.09 0 0 0 5.9 2.58 8.43 8.43 0 0 0 5.07-1.76 8.17 8.17 0 0 0 1.54-11.14l-3.8-5.15a.43.43 0 0 0 0-.07l-2.28-3.17a1.37 1.37 0 0 0 -.18-.24l-.84-1.18a2.53 2.53 0 0 0 -.13-.22l-2.54-3.55a2.91 2.91 0 0 0 -.26-.33l-1-1.42.35-.51a40.41 40.41 0 0 0 8.89 1.15q.39.89.84 1.74l4.67 9.07 1.9 3.79s0 0 0 0l1.06 2a.08.08 0 0 0 0 .05l2 3.9a2.69 2.69 0 0 0 .16.29l2.57 5a8.51 8.51 0 0 0 7.55 4.7 7.78 7.78 0 0 0 2.19-.3 8.52 8.52 0 0 0 5.61-11.52l-2.28-5.46c0-.1-.09-.2-.14-.3l-.75-1.79-.06-.15-.77-1.87a3.09 3.09 0 0 0 -.14-.32l-.7-1.66v-.05l-.51-1.22-3.39-8.1 1-.11v-1.09a3.06 3.06 0 0 0 .25-1.22l-.83-25.84 6.89-3.28a14.2 14.2 0 0 0 7.68-9.39 14.38 14.38 0 0 0 0-6.9l1-1.79a13.24 13.24 0 0 0 1.72-5.4v-.11a12.88 12.88 0 0 0 0-2.06 4.67 4.67 0 0 1 .78-3l1-1.45a9.18 9.18 0 0 0 -.75-12.45z" fill="#fff"/><path d="m108.25 88-25.36-16.38-.1-.34a8 8 0 0 0 -.52-4.9 7.72 7.72 0 0 0 .11-5.13l-1.32-4.15 3.28-10.1 3.83 1.47a4 4 0 0 0 3.09-.06 4.64 4.64 0 0 0 .86-.51l8.52 3.22a9.13 9.13 0 0 0 9.38-1.84l5-4.56a4.8 4.8 0 0 0 1.54-3.49 4.31 4.31 0 0 0 1.72.47h.24a4.4 4.4 0 0 0 4.28-3.7l1.37-13.31a4.88 4.88 0 0 0 -.39-2.43 4.3 4.3 0 0 0 .27-2.22l-.39-3a3.71 3.71 0 0 0 -7.14-.76l-1 2.71a4.35 4.35 0 0 0 -.21 2.64 4.76 4.76 0 0 0 -.69 1.76 7.83 7.83 0 0 0 -5.69 2.08l-4.43 4.07a2.06 2.06 0 0 0 -.37.29l-2.28 2.17-2.68-1-7.7-3a26.55 26.55 0 0 0 -7-1.63l-2.22-.2-2.51-.07a4.5 4.5 0 0 0 -.94-1.57 1.8 1.8 0 0 0 -.2-.19c0-.62-.06-1.26-.13-1.91l-.09-1 2.27-.32a9.53 9.53 0 0 0 6.26-3.69 2.83 2.83 0 0 0 -.44-4 2.79 2.79 0 0 0 -2.07-.61 2.88 2.88 0 0 0 -2 1.12 3.91 3.91 0 0 1 -2.56 1.53l-.42.06-.42-4.23a10.53 10.53 0 0 0 -7.48-9.11 4.62 4.62 0 0 0 -2.35-1.89 4.76 4.76 0 0 0 -6.08 2.81 5 5 0 0 0 -.21.73 11.3 11.3 0 0 0 -1.67 1.58 10.17 10.17 0 0 0 -2.32 7.59l.74 7.52a2.83 2.83 0 0 0 .46 1.34l.11 1.14 1.13-.11.3.1.11 1.15a11.89 11.89 0 0 1 .07 1.38v.15l-4.81-.17a13.77 13.77 0 0 0 -13.92 16l.18 1.17a53.81 53.81 0 0 0 -3.68 25.61l.51 5.21a7.26 7.26 0 0 0 5.19 6.24l3.89 11-6 1.92a38.51 38.51 0 0 0 -10.77 5.41l-1.64 1.2c.12-.14.23-.29.34-.44a5 5 0 0 0 .78-3.95l.11-.12a5.22 5.22 0 0 0 1.1-3.54v-.28a5.19 5.19 0 0 0 -2-3.49v-.18a5.3 5.3 0 0 0 -1.56-3.51 5.09 5.09 0 0 0 -3.77-1.42 5.11 5.11 0 0 0 -3.56-1.83 5 5 0 0 0 -3.76 1.32h-.08a5.1 5.1 0 0 0 -5.81 4c-.1 0-.2 0-.3 0a4.94 4.94 0 0 0 -3.78 1.3h-.09a5.05 5.05 0 0 0 -5.84 4.38 5.07 5.07 0 0 0 -1.75 7.11.49.49 0 0 1 0 .11 5.09 5.09 0 0 0 3.21 6.51 5.1 5.1 0 0 0 6.61 3.1h.11l.2.11a5.29 5.29 0 0 0 2.55.58l.06.1c0 .13-.07.26-.1.4a3.72 3.72 0 0 0 .3 2.23l-5.16 3.77.39.31a14.34 14.34 0 0 0 -3.15 10.49l1.75 17.58-1.07 6.53a3.51 3.51 0 0 0 0 .55 4.29 4.29 0 0 0 -1.13 4.6l4.47 12.34a4.56 4.56 0 0 0 .8 1.47 4.2 4.2 0 0 0 .07 1.27l.58 2.92a3.74 3.74 0 0 0 3.25 2.95l.25 1 .06.22 1.53 6.08a9.3 9.3 0 0 0 8.15 7.1 4.71 4.71 0 0 0 .77 0 9.14 9.14 0 0 0 9-10.89l-1.23-6.04a2 2 0 0 0 -.05-.24l-.47-2.44a2.18 2.18 0 0 0 -.11-.44l-.43-2.28a2.33 2.33 0 0 0 -.07-.53l-.19-1a2.29 2.29 0 0 0 .5-.3l1.4-.23-.34-1.5a2.66 2.66 0 0 0 0-1.19l-.65-3 8.81-1.37.15 14.88a11.71 11.71 0 0 0 10.84 11.73l11.66.83h.17l3.54.25h.11l3 .22h.18l2.75.2h.32l5.46.4a5.41 5.41 0 0 0 .73 0v-.3.3h.07a8.58 8.58 0 0 0 8.5-8.65c0-.3 0-.6 0-.9a8.6 8.6 0 0 0 -7.16-7.59l-11.96-1.85a2.85 2.85 0 0 0 -.16-.87l.2-1.21-1.22-.15a2.91 2.91 0 0 0 -1.39-.52l-3.25-.35.82-8.64a9.61 9.61 0 0 0 8.9-8.07l.61-4a.3.3 0 0 0 0-.1l.43-2.5a3 3 0 0 0 0-.67l.29-1.81c0-.11 0-.22 0-.33l1-6a2.83 2.83 0 0 0 0-.5l.58-3.66a1.18 1.18 0 0 0 0-.2l2.22-14.29a23.31 23.31 0 0 0 0-6.88l-1.22-8.32 10.54 4.47-.17 1.21a4.7 4.7 0 0 0 1.33 5.12l-.37 1.19a2.13 2.13 0 0 0 -.14.35l-1 3.25-.67 2.16a3.13 3.13 0 0 0 -.1.44l-.5 1.61a2.93 2.93 0 0 0 -.16.39l-.69 2.22-1.37 4.44a8.85 8.85 0 0 0 5.37 11 8.25 8.25 0 0 0 3.12.59 8.91 8.91 0 0 0 8.29-5.71l1.78-4.63v-.1-.12l.61-1.56 1.1-2.74v-.13c0-.08 0-.16.07-.24l.69-1.81v-.11a2.33 2.33 0 0 0 .07-.25l.89-2.3.14-.19 1.54-3.68a3.39 3.39 0 0 0 .18-.39l4.71-12.12a12 12 0 0 0 -4.64-14.29zm-55.75 20.62 2.25-.73a19.73 19.73 0 0 1 .14 3.07 27 27 0 0 0 -2.15-2.13zm-22.81 23.63 2.81 7.75-7 1.65-1.4-13.65c0-.07 0-.14 0-.21zm-1.75-31.32a5 5 0 0 0 .91-.27l-.72.52z" fill="#fff"/><path d="m140.18 70.17-8-10.46a2 2 0 1 1 3.25-2.29l7.08 11.1a1.47 1.47 0 0 1 -.37 2 1.48 1.48 0 0 1 -1.96-.35z" fill="#05f293"/><path d="m141.33 71.07a1.79 1.79 0 0 1 -1.41-.69l-8-10.5a2.43 2.43 0 0 1 -.46-1.76 2.24 2.24 0 0 1 .95-1.54 2.3 2.3 0 0 1 3.28.67l7.08 11.1a1.75 1.75 0 0 1 -.46 2.4 1.91 1.91 0 0 1 -.98.32zm-7.53-14.26a1.62 1.62 0 0 0 -1 .32 1.7 1.7 0 0 0 -.69 1.1 1.78 1.78 0 0 0 .31 1.27l8 10.47a1.11 1.11 0 0 0 1.81-1.27l-7.07-11.13a1.76 1.76 0 0 0 -1.1-.76z" fill="#3d3dff"/><path d="m131.67 51.38a.85.85 0 0 0 -.72.81l-.2 3a1.61 1.61 0 1 0 3.07-.55l-1.2-2.69a.87.87 0 0 0 -.95-.57z" fill="#7b93ff"/><path d="m132.36 57.19a2 2 0 0 1 -1.3-.49 1.85 1.85 0 0 1 -.63-1.59l.2-3a1.17 1.17 0 0 1 1-1.1 1.24 1.24 0 0 1 1.32.69l1.21 2.69a1.88 1.88 0 0 1 -.06 1.71 2 2 0 0 1 -1.38 1 1.31 1.31 0 0 1 -.36.09zm-.52-5.49h-.09a.57.57 0 0 0 -.46.52l-.2 3a1.31 1.31 0 0 0 .43 1.07 1.34 1.34 0 0 0 1.1.31 1.25 1.25 0 0 0 .92-.66 1.22 1.22 0 0 0 0-1.13l-1.21-2.69a.57.57 0 0 0 -.49-.42z" fill="#3d3dff"/><path d="m169.39 86a6.24 6.24 0 0 1 7.82.29 6.32 6.32 0 0 1 .49 8.62l-1.09 1.53a7.28 7.28 0 0 0 -1.3 4.86 10.7 10.7 0 0 1 0 1.7 10.57 10.57 0 0 1 -1.32 4.22c-1.41 2.4-2.79 4.83-4.2 7.23-2.68-4-5.38-7.92-8.06-11.85" fill="#fec1ee"/><path d="m169.79 114.73a.3.3 0 0 1 -.26-.15l-8.06-11.85a.34.34 0 0 1 .09-.46.36.36 0 0 1 .46.08l7.77 11.45 3.94-6.79a10.15 10.15 0 0 0 1.27-4.11 7.49 7.49 0 0 0 0-1.64 7.68 7.68 0 0 1 1.36-5.06l1.09-1.54a6 6 0 0 0 -.46-8.18 5.89 5.89 0 0 0 -7.42-.26.31.31 0 0 1 -.46-.06.32.32 0 0 1 .05-.46 6.54 6.54 0 0 1 8.23.32 6.73 6.73 0 0 1 .61 9.08l-1.06 1.5a7.09 7.09 0 0 0 -1.24 4.63 11.49 11.49 0 0 1 0 1.76 10.87 10.87 0 0 1 -1.38 4.37l-4.2 7.22a.36.36 0 0 1 -.33.15z" fill="#3d3dff"/><path d="m139 143.24-.52-2.92.67-.12.49 2.92z" fill="#3d3dff"/><path d="m155.49 153.94-.78-22.85 8.72-8-16.43-25.71-8.6 11.42a27.36 27.36 0 0 0 -4.49 9.14l-4.06 14.92-13.43 21.74a11.55 11.55 0 0 0 1.38 14l3 3.21 9.35-8.59-2.39-3.33 11.57-16.68-.46-2.92.52 2.92 1.64 9.28a29.2 29.2 0 0 0 2.85 8.47l4.86 9.46 11.41-5.42z" fill="#ffff60"/><path d="m120.79 172.24-3.22-3.47a11.9 11.9 0 0 1 -1.41-14.37l13.44-21.69 4.05-14.89a27.77 27.77 0 0 1 4.52-9.25l8.89-11.8 16.8 26.29-8.8 8.12.77 22.67 4.72 11.28-12 5.66-5-9.71a30.13 30.13 0 0 1 -2.88-8.56l-1.49-8.5-11 15.84 2.41 3.36zm26.21-74.31-8.31 11.07a26.51 26.51 0 0 0 -4.43 9l-4.09 15-13.43 21.75a11.28 11.28 0 0 0 1.26 13.59l2.79 3 8.89-8.18-2.36-3.27 11.68-16.8-.48-2.77.63-.12 2.13 12.2a29.87 29.87 0 0 0 2.82 8.39l4.72 9.16 10.87-5.14-4.55-10.81v-.05l-.77-23 8.63-7.95z" fill="#3d3dff"/><path d="m163.32 172.67-10.82 5.12 1 2.05 10.68-5z" fill="#ff7698"/><path d="m153.53 180.19a.31.31 0 0 1 -.28-.17l-1.07-2.02a.39.39 0 0 1 0-.26.46.46 0 0 1 .17-.2l10.85-5.12a.39.39 0 0 1 .26 0 .26.26 0 0 1 .17.18l.89 2.14a.34.34 0 0 1 -.17.43l-10.64 5a1.3 1.3 0 0 1 -.18.02zm-.6-2.23.75 1.48 10.1-4.77-.64-1.53z" fill="#3d3dff"/><path d="m162.77 188a5.7 5.7 0 0 0 3.74-7.69l-2.3-5.5-10.68 5 2.71 5.27a5.63 5.63 0 0 0 6.53 2.92z" fill="#f2f2f2"/><path d="m161.3 188.52a6 6 0 0 1 -5.35-3.27l-2.7-5.26a.4.4 0 0 1 0-.26.33.33 0 0 1 .17-.2l10.67-5a.57.57 0 0 1 .26 0 .24.24 0 0 1 .17.18l2.31 5.49a6.07 6.07 0 0 1 -4 8.16 5.59 5.59 0 0 1 -1.53.16zm-7.3-8.52 2.56 5a5.35 5.35 0 0 0 9.67-4.54l-2.16-5.17z" fill="#3d3dff"/><path d="m160.12 165-11.45 5.41 1.76 3.41 11.16-5.26z" fill="#f2f2f2"/><path d="m150.43 174.15a.32.32 0 0 1 -.29-.18l-1.76-3.44a.46.46 0 0 1 0-.26.43.43 0 0 1 .18-.2l11.44-5.41a.39.39 0 0 1 .26 0 .28.28 0 0 1 .17.18l1.5 3.55a.35.35 0 0 1 -.18.44l-11.16 5.26s-.11.06-.16.06zm-1.3-3.62 1.47 2.87 10.59-5-1.19-2.96z" fill="#3d3dff"/><path d="m162.48 170.68-11 5.17 1 1.94 10.82-5.12z" fill="#f2f2f2"/><path d="m152.5 178.14a.32.32 0 0 1 -.29-.18l-1-1.93a.34.34 0 0 1 .15-.47l11-5.2a.39.39 0 0 1 .26 0 .29.29 0 0 1 .17.17l.83 2a.34.34 0 0 1 -.17.43l-10.85 5.12a.22.22 0 0 1 -.1.06zm-.58-2.11.69 1.36 10.27-4.86-.57-1.42z" fill="#3d3dff"/><path d="m161.59 168.54-11.16 5.26 1.06 2 11-5.17z" fill="#ff7698"/><path d="m151.49 176.2a.34.34 0 0 1 -.29-.17l-1.06-2.03a.39.39 0 0 1 0-.26.46.46 0 0 1 .17-.2l11.16-5.26a.39.39 0 0 1 .26 0 .28.28 0 0 1 .18.17l.89 2.14a.35.35 0 0 1 -.17.44l-11 5.2s-.08-.03-.14-.03zm-.6-2.23.74 1.48 10.45-4.95-.64-1.53z" fill="#3d3dff"/><path d="m127.84 179.32 8.37-7.66-1.21-1.66-8.54 7.9z" fill="#ff7698"/><path d="m127.84 179.67a.26.26 0 0 1 -.23-.12l-1.41-1.5a.32.32 0 0 1 -.09-.23.26.26 0 0 1 .12-.23l8.57-7.87a.47.47 0 0 1 .26-.08.28.28 0 0 1 .23.14l1.21 1.68a.31.31 0 0 1 -.06.43l-8.37 7.69a.32.32 0 0 1 -.23.09zm-.92-1.82 1 1 7.91-7.29-.83-1.15z" fill="#3d3dff"/><path d="m131.84 183.6a5.27 5.27 0 0 0 8.11-6.71l-3.77-5.23-8.37 7.69z" fill="#f2f2f2"/><path d="m135.69 185.63a5.58 5.58 0 0 1 -4.08-1.8l-4-4.28a.3.3 0 0 1 -.09-.23.27.27 0 0 1 .12-.23l8.36-7.69a.39.39 0 0 1 .26-.09.29.29 0 0 1 .23.15l3.77 5.23a5.66 5.66 0 0 1 -1.07 7.72 5.8 5.8 0 0 1 -3.5 1.22zm-7.39-6.28 3.77 4.05a4.88 4.88 0 0 0 6.67.49 5 5 0 0 0 .95-6.82l-3.53-4.95z" fill="#3d3dff"/><path d="m126.46 177.85 8.54-7.85-1.15-1.61-8.77 8z" fill="#f2f2f2"/><path d="m126.46 178.17a.26.26 0 0 1 -.23-.12l-1.35-1.45a.3.3 0 0 1 -.09-.23.27.27 0 0 1 .12-.23l8.74-8a.45.45 0 0 1 .26-.08.3.3 0 0 1 .23.14l1.18 1.65a.31.31 0 0 1 -.06.43l-8.57 7.87a.87.87 0 0 1 -.23.02zm-.92-1.77.92 1 8.11-7.46-.8-1.1z" fill="#3d3dff"/><path d="m125.08 176.37 8.77-8-1.2-1.68-9 8.21z" fill="#ff7698"/><path d="m125.08 176.69a.27.27 0 0 1 -.23-.11l-1.41-1.51a.32.32 0 0 1 -.09-.23.26.26 0 0 1 .12-.23l8.94-8.21a.41.41 0 0 1 .26-.09.28.28 0 0 1 .23.15l1.21 1.67a.32.32 0 0 1 -.06.44l-8.74 8a.38.38 0 0 1 -.23.12zm-.92-1.79 1 1 8.31-7.63-.83-1.16z" fill="#3d3dff"/><path d="m138.86 140.26.49 2.92z" fill="#fec1ee"/><path d="m139.35 143.5a.34.34 0 0 1 -.32-.26l-.52-2.92a.32.32 0 0 1 .18-.29s0 0 .05 0a.28.28 0 0 1 .32.26l.52 2.92a.34.34 0 0 1 -.09.29.24.24 0 0 1 -.17.09c.09-.09.06-.09.03-.09z" fill="#3d3dff"/><path d="m123.7 174.87 9-8.21-2.48-3.47-9.35 8.59z" fill="#f2f2f2"/><path d="m123.7 175.19a.25.25 0 0 1 -.23-.12l-2.88-3.07a.33.33 0 0 1 -.09-.23.25.25 0 0 1 .12-.23l9.35-8.59a.39.39 0 0 1 .26-.09.31.31 0 0 1 .23.15l2.47 3.44a.31.31 0 0 1 -.05.43l-9 8.24a.32.32 0 0 1 -.18.07zm-2.42-3.38 2.45 2.6 8.51-7.81-2.1-2.92z" fill="#3d3dff"/><path d="m116.07 149.6 3.69-6a107.28 107.28 0 0 0 12.24-28.15l.84-3.06a32.81 32.81 0 0 1 5.41-11l10.41-13.82 19.8 31.05-10.54 9.72.93 27.61-13.56 1.51a37.49 37.49 0 0 1 -20.8-3.65z" fill="#d0fff1"/><path d="m141.13 158a38 38 0 0 1 -16.74-3.9l-8.46-4.16a.31.31 0 0 1 -.17-.2.42.42 0 0 1 0-.27l3.68-5.95a105.66 105.66 0 0 0 12.2-28.11l.83-3.06a32.46 32.46 0 0 1 5.53-11.18l10.41-13.82a.25.25 0 0 1 .26-.12.3.3 0 0 1 .26.15l19.82 31a.31.31 0 0 1 -.05.41l-10.45 9.62.92 27.47a.34.34 0 0 1 -.28.35l-13.56 1.5a38 38 0 0 1 -4.2.27zm-24.6-8.5 8.15 4a37.36 37.36 0 0 0 20.62 3.62l13.24-1.48-.92-27.29a.36.36 0 0 1 .11-.26l10.33-9.54-19.42-30.45-10.13 13.44a32.19 32.19 0 0 0 -5.35 10.93l-.83 3.07a107.12 107.12 0 0 1 -12.33 28.28z" fill="#3d3dff"/><path d="m141 64.36a4.57 4.57 0 0 0 -3.43-5.12 4.09 4.09 0 0 0 -4.74 3.7l-.66 5.35 8.17 1.45z" fill="#ffff60"/><path d="m140.59 70.14-8.81-1.56.69-5.66a4.79 4.79 0 0 1 1.84-3.21 4.16 4.16 0 0 1 3.31-.78 4.88 4.88 0 0 1 3.69 5.46zm-8.09-2.14 7.5 1.36.63-5.06a4.19 4.19 0 0 0 -3.16-4.74 3.58 3.58 0 0 0 -2.79.67 4.06 4.06 0 0 0 -1.55 2.77z" fill="#3d3dff"/><path d="m139.81 73.5.52-3.73-9.33-1.53a1 1 0 0 0 -1.13.83l-.72 5.32a6.72 6.72 0 0 0 2.85 6.39l7.31 5.09 5.07-9.22z" fill="#f2f2f2"/><path d="m139.26 86.19a.29.29 0 0 1 -.17-.06l-7.31-5.13a7 7 0 0 1 -2.93-6.7l.72-5.32a1.29 1.29 0 0 1 .51-.87 1.33 1.33 0 0 1 1-.23l9.32 1.53a.32.32 0 0 1 .26.38l-.49 3.55 4.38 3a.32.32 0 0 1 .08.43l-5.06 9.23a.41.41 0 0 1 -.2.17c-.05.02-.08.02-.11.02zm-8.43-17.64a.77.77 0 0 0 -.37.12.68.68 0 0 0 -.26.43l-.72 5.32a6.35 6.35 0 0 0 2.65 6.08l7 4.88 4.75-8.64-4.26-3a.41.41 0 0 1 -.15-.32l.46-3.44-9-1.48s-.04.05-.1.05z" fill="#3d3dff"/><path d="m132.73 112.39a4.25 4.25 0 1 0 -4.43 7.25l5.35 3.16 3.91-7.58z" fill="#ffff60"/><path d="m133.8 123.26-5.67-3.33a4.52 4.52 0 0 1 -2.13-2.86 4.62 4.62 0 0 1 .57-3.53 4.7 4.7 0 0 1 6.33-1.44l5.13 3zm-3.34-11.16a3.91 3.91 0 0 0 -2 7.28l5.07 3 3.62-7-4.57-2.69a4.13 4.13 0 0 0 -2.12-.59z" fill="#3d3dff"/><path d="m156.5 126.44-4.72-9.6-6.33 3-7.86-4.63-4.34 8.38a1.36 1.36 0 0 0 .52 1.8l5.95 3.5a11.47 11.47 0 0 0 10.68.46z" fill="#f2f2f2"/><path d="m145.48 130.81a11.79 11.79 0 0 1 -5.93-1.62l-6-3.5a1.67 1.67 0 0 1 -.63-2.2l4.35-8.38a.28.28 0 0 1 .2-.18.4.4 0 0 1 .26 0l7.71 4.54 6.18-3a.32.32 0 0 1 .43.15l4.72 9.6a.39.39 0 0 1 0 .26.26.26 0 0 1 -.17.17l-6.1 2.92a11.44 11.44 0 0 1 -5.02 1.24zm-7.74-15.1-4.2 8.07a1 1 0 0 0 .37 1.36l6 3.5a11 11 0 0 0 10.35.43l5.82-2.78-4.43-9-6.05 2.9a.47.47 0 0 1 -.31 0z" fill="#3d3dff"/><path d="m159.32 113.23-7.51 3.61 5.06 10.35a1.46 1.46 0 0 0 1.9.67l7.68-3.68a11.51 11.51 0 0 0 4.32-17.11l-15.28-21.07a22.89 22.89 0 0 0 -5.38-5.29l-5.78-4-5.64 10.26a1.45 1.45 0 0 0 .43 1.88l3.13 2.2a13.08 13.08 0 0 1 3.14 3.07" fill="#d0fff1"/><path d="m158.17 128.29a1.78 1.78 0 0 1 -1.59-1l-5.06-10.29a.4.4 0 0 1 0-.26.28.28 0 0 1 .17-.18l7.51-3.61a.32.32 0 0 1 .43.14.33.33 0 0 1 -.14.44l-7.25 3.47 4.92 10a1.1 1.1 0 0 0 1.47.52l7.68-3.67a11.22 11.22 0 0 0 4.2-16.66l-15.28-21.06a22.32 22.32 0 0 0 -5.29-5.2l-5.47-3.82-5.47 10a1.07 1.07 0 0 0 .35 1.44l3.13 2.2a13.29 13.29 0 0 1 3.2 3.15.34.34 0 0 1 -.06.47.33.33 0 0 1 -.46-.06 13 13 0 0 0 -3-3l-3.16-2.26a1.75 1.75 0 0 1 -.54-2.28l5.64-10.26a.35.35 0 0 1 .2-.18.29.29 0 0 1 .26.06l5.75 4a23.54 23.54 0 0 1 5.47 5.35l15.22 21.1a11.83 11.83 0 0 1 -4.43 17.6l-7.72 3.68a1.68 1.68 0 0 1 -.68.17z" fill="#3d3dff"/><path d="m142.25 148.41a.41.41 0 0 1 -.17 0 21.85 21.85 0 0 1 -8.83-13.51.32.32 0 0 1 .26-.37.32.32 0 0 1 .37.26 21.34 21.34 0 0 0 8.58 13.1.36.36 0 0 1 .08.46.55.55 0 0 1 -.29.06z" fill="#3d3dff"/><path d="m117.6 165.79a.18.18 0 0 1 -.12 0 .31.31 0 0 1 -.17-.43 5.54 5.54 0 0 0 .35-2.34.3.3 0 0 1 .28-.35.31.31 0 0 1 .35.29 5.64 5.64 0 0 1 -.4 2.63.29.29 0 0 1 -.29.2z" fill="#3d3dff"/><path d="m152.93 161.86a.27.27 0 0 1 -.15 0 .3.3 0 0 1 -.14-.43l.55-1.16a.32.32 0 0 1 .57.29l-.54 1.16a.42.42 0 0 1 -.29.14z" fill="#3d3dff"/><path d="m154 151.51a.33.33 0 0 1 -.31-.23l-.84-2.61a.31.31 0 0 1 .2-.4.32.32 0 0 1 .41.2l.83 2.6a.32.32 0 0 1 -.2.41s-.04.03-.09.03z" fill="#3d3dff"/><path d="m151.61 143.33a.34.34 0 0 1 -.32-.26 30.3 30.3 0 0 1 -.58-5.85.32.32 0 0 1 .64 0 32.41 32.41 0 0 0 .54 5.73.33.33 0 0 1 -.26.38z" fill="#3d3dff"/><path d="m151.49 131.73a.32.32 0 0 1 -.29-.35l.32-2.71a.34.34 0 0 1 .35-.29.31.31 0 0 1 .28.34l-.31 2.72a.3.3 0 0 1 -.35.29z" fill="#3d3dff"/><path d="m169.24 104.93-2.16-3a.84.84 0 0 1 .09-1.07 13.48 13.48 0 0 1 1.21-1 1 1 0 0 0 .26-1.33l-5.56-9.26a1.12 1.12 0 0 0 -1.61-.37 25.29 25.29 0 0 0 -3.07 2.51l-4.87 4.59" fill="#d0fff1"/><path d="m169.24 105.25a.36.36 0 0 1 -.26-.15l-2.15-3a1.1 1.1 0 0 1 .11-1.47 9.72 9.72 0 0 1 1.24-1 .72.72 0 0 0 .17-.93l-5.55-9.25a.77.77 0 0 0 -.55-.38.7.7 0 0 0 -.6.12 26.73 26.73 0 0 0 -3 2.48l-4.84 4.54a.32.32 0 0 1 -.46 0 .34.34 0 0 1 0-.47l4.83-4.54a30.23 30.23 0 0 1 3.11-2.54 1.38 1.38 0 0 1 1.12-.23 1.54 1.54 0 0 1 1 .69l5.59 9.24a1.35 1.35 0 0 1 -.34 1.77 9.74 9.74 0 0 0 -1.18 1 .5.5 0 0 0 0 .64l2.16 3a.33.33 0 0 1 -.06.46 2 2 0 0 1 -.34.02z" fill="#3d3dff"/><path d="m165.27 99.55a.31.31 0 0 1 -.26-.15.34.34 0 0 1 .09-.46l.8-.58a.34.34 0 0 1 .46.09.33.33 0 0 1 -.08.46l-.81.58a.47.47 0 0 1 -.2.06z" fill="#3d3dff"/><path d="m164.41 98.28a.3.3 0 0 1 -.26-.15.32.32 0 0 1 .09-.46l.8-.58a.33.33 0 0 1 .38.55l-.81.58a.3.3 0 0 1 -.2.06z" fill="#3d3dff"/><path d="m163.52 97a.29.29 0 0 1 -.26-.14.33.33 0 0 1 .08-.46l.81-.58a.32.32 0 0 1 .46.09.33.33 0 0 1 -.09.46l-.8.58a.28.28 0 0 1 -.2.05z" fill="#3d3dff"/><path d="m149.1 88a.34.34 0 0 1 -.14 0 7.08 7.08 0 0 1 -2-1.31.33.33 0 0 1 .43-.49 7 7 0 0 0 1.82 1.19.34.34 0 0 1 .17.43.29.29 0 0 1 -.28.18z" fill="#3d3dff"/><path d="m162 118.81a.32.32 0 0 1 0-.64l1.84-.12a.32.32 0 1 1 .06.64z" fill="#3d3dff"/><path d="m149.74 111.23a6.07 6.07 0 1 0 -6.05-6.07 6.06 6.06 0 0 0 6.05 6.07z" fill="#22c7ff"/><path d="m149.74 111.58a6.32 6.32 0 0 1 -4-1.42 6.47 6.47 0 0 1 -2.35-4.31 6.38 6.38 0 1 1 7 5.67 2.84 2.84 0 0 1 -.65.06zm.63-.7v.32-.32a5.73 5.73 0 1 0 -4.2-1.21 5.61 5.61 0 0 0 4.2 1.21z" fill="#3d3dff"/><path d="m160.9 107.62a31 31 0 0 1 -14.65-3.7.34.34 0 0 1 -.14-.44.33.33 0 0 1 .43-.14 30.33 30.33 0 0 0 15.54 3.66.34.34 0 0 1 0 .67z" fill="#3d3dff"/><path d="m143.75 121.06a.34.34 0 0 1 -.29-.17.31.31 0 0 1 .15-.44l1.69-.86a.31.31 0 0 1 .44.14.32.32 0 0 1 -.15.44l-1.7.86s-.08.03-.14.03z" fill="#3d3dff"/><path d="m139.64 75.38a.33.33 0 0 1 -.29-.35l.17-1.53a.32.32 0 0 1 .35-.29.33.33 0 0 1 .29.35l-.16 1.53a.37.37 0 0 1 -.36.29z" fill="#3d3dff"/><path d="m126.6 162.09a.44.44 0 0 1 -.17-.06.35.35 0 0 1 -.11-.46l1.18-1.88a.33.33 0 1 1 .57.35l-1.18 1.88a.32.32 0 0 1 -.29.17z" fill="#3d3dff"/><path d="m172 96a16.23 16.23 0 0 1 2.25-10 5 5 0 0 0 -4.89 0l-5.07 2.83a11.39 11.39 0 0 0 -1.15.7l5.18 8.64c.26-.17.55-.37.83-.52z" fill="#ffff60"/><path d="m168.23 98.57-5.49-9.23.26-.17c.37-.23.78-.49 1.15-.69l5.06-2.84a5.34 5.34 0 0 1 5.21 0l.29.17-.17.29a15.89 15.89 0 0 0 -2.19 9.81v.2l-3 1.7a4.42 4.42 0 0 0 -.69.44zm-4.63-9 4.84 8.07.57-.35 2.68-1.5a16.64 16.64 0 0 1 2.13-9.69 4.62 4.62 0 0 0 -4.29.15l-5.06 2.83c-.29.15-.58.32-.87.49z" fill="#3d3dff"/><path d="m179.11 91.05a6 6 0 0 0 -2.93-5.58 7.16 7.16 0 0 1 -2-1.16 4.87 4.87 0 0 1 -1-1.07 2.58 2.58 0 0 1 -.4-1.07 2.73 2.73 0 1 0 -5.41.7 8.09 8.09 0 0 0 1.21 3.29 10 10 0 0 0 2.16 2.43 12.87 12.87 0 0 0 3 1.79" fill="#fec1ee"/><path d="m179.11 91.37a.32.32 0 0 1 -.32-.35 5.41 5.41 0 0 0 -.43-2.57 5.8 5.8 0 0 0 -2.3-2.66 7.27 7.27 0 0 1 -2.06-1.19 4.74 4.74 0 0 1 -1-1.13 3 3 0 0 1 -.46-1.21 2.28 2.28 0 0 0 -.92-1.59 2.32 2.32 0 0 0 -1.78-.49 2.28 2.28 0 0 0 -1.58.92 2.35 2.35 0 0 0 -.49 1.8 7.53 7.53 0 0 0 1.15 3.15 9.09 9.09 0 0 0 2.1 2.34 13.24 13.24 0 0 0 2.93 1.76.34.34 0 0 1 .18.44.35.35 0 0 1 -.44.17 13.39 13.39 0 0 1 -3.07-1.85 10.18 10.18 0 0 1 -2.25-2.52 8.53 8.53 0 0 1 -1.29-3.39 3 3 0 0 1 .61-2.25 3 3 0 0 1 5.41 1.47 2.58 2.58 0 0 0 .37 1 3.78 3.78 0 0 0 .89 1 6.42 6.42 0 0 0 1.93 1.1s0 0 .06 0a6.48 6.48 0 0 1 2.59 3 6.35 6.35 0 0 1 .46 2.9c.03.03-.12.15-.29.15z" fill="#3d3dff"/><path d="m67.56 6.69a1.94 1.94 0 1 0 -1.92-1.93 1.92 1.92 0 0 0 1.92 1.93z" fill="#fec1ee"/><path d="m67.56 7a2.87 2.87 0 0 1 -.8-.14 2.3 2.3 0 0 1 -1.32-2.86 2.26 2.26 0 1 1 4.22 1.6 2.25 2.25 0 0 1 -1.17 1.27 2.67 2.67 0 0 1 -.93.13zm0-3.87a1.63 1.63 0 0 0 -.66.14 1.48 1.48 0 0 0 -.83.9 1.61 1.61 0 1 0 3 1.12 1.71 1.71 0 0 0 0-1.24 1.53 1.53 0 0 0 -.89-.84 2.23 2.23 0 0 0 -.62-.04z" fill="#3d3dff"/><path d="m74 95.4-.49-3.47.63-.09.52 3.47z" fill="#3d3dff"/><path d="m105.51 113.41 4.72-12.14a9.13 9.13 0 0 0 -3.54-11l-26.24-16.82-1.72-5.63-31.31 9.48 8.95 25.24a23.29 23.29 0 0 1 1.21 10.3l-1.29 12a2 2 0 0 0 1.78 2.25l16 2 2.24-14.43a20.12 20.12 0 0 0 0-6l-2-13.27-.51-3.47.51 3.47 17.58 7.52-1.38 3.73a1.77 1.77 0 0 0 1.12 2.31z" fill="#fec1ee"/><path d="m74 129.43-16-2a2.42 2.42 0 0 1 -2-2.62l1.29-12a22.76 22.76 0 0 0 -1.18-10.15l-8.97-25.24a.27.27 0 0 1 0-.26.28.28 0 0 1 .2-.18l31.3-9.48a.33.33 0 0 1 .4.2l1.7 5.52 26.12 16.83a9.46 9.46 0 0 1 3.69 11.34l-4.72 12.14a.34.34 0 0 1 -.4.2l-13.81-4.51a2 2 0 0 1 -1.24-1.1 2.06 2.06 0 0 1 -.09-1.65l1.3-3.47-16.83-7.11 1.87 12.72a21.33 21.33 0 0 1 0 6.13l-2.25 14.43a.32.32 0 0 1 -.38.26zm-26.17-51.9 8.83 24.93a23.42 23.42 0 0 1 1.21 10.43l-1.3 12a1.74 1.74 0 0 0 1.5 1.91l15.65 2 2.22-14.11a20.17 20.17 0 0 0 0-6l-2.42-16.69a.34.34 0 0 1 .26-.38.32.32 0 0 1 .37.26l.49 3.3 17.44 7.43a.31.31 0 0 1 .17.41l-1.38 3.73a1.44 1.44 0 0 0 .06 1.15 1.36 1.36 0 0 0 .86.75l13.52 4.4 4.61-11.86a8.83 8.83 0 0 0 -3.43-10.55l-26.24-16.92a.42.42 0 0 1 -.14-.18l-1.64-5.32z" fill="#3d3dff"/><path d="m78.12 57.09 7-21.69-35.85 1.19-1.9 3.87a51.39 51.39 0 0 0 -4.95 27.54l.52 5.2a4.36 4.36 0 0 0 5.61 3.8l27.76-8.41a5.12 5.12 0 0 0 3.37-6.45z" fill="#05f293"/><path d="m47.28 77.47a4.6 4.6 0 0 1 -2.62-.81 4.69 4.69 0 0 1 -2.07-3.47l-.52-5.19a51.45 51.45 0 0 1 5-27.7l2-4 36.54-1.18-7.14 22 1.53 4.88a5.35 5.35 0 0 1 -.37 4.2 5.29 5.29 0 0 1 -3.22 2.66l-27.78 8.41a4.09 4.09 0 0 1 -1.35.2zm2.19-40.56-1.82 3.7a51 51 0 0 0 -4.92 27.39l.52 5.21a4.08 4.08 0 0 0 5.21 3.49l27.76-8.41a4.78 4.78 0 0 0 2.85-2.34 4.67 4.67 0 0 0 .32-3.67l-1.64-5.12v-.09l6.87-21.22z" fill="#3d3dff"/><path d="m74.35 95.34-.48-3.44z" fill="#fec1ee"/><path d="m74.35 95.69a.34.34 0 0 1 -.35-.29l-.52-3.47a.46.46 0 0 1 0-.2.41.41 0 0 1 .14-.15s.06 0 .09 0a.33.33 0 0 1 .37.27l.52 3.46a.33.33 0 0 1 -.26.38s.04 0 .01 0z" fill="#3d3dff"/><path d="m96.13 104.91a.17.17 0 0 1 -.11 0l-4.17-1.73a.33.33 0 1 1 .26-.61l4.17 1.74a.33.33 0 0 1 .17.43.42.42 0 0 1 -.32.17z" fill="#3d3dff"/><path d="m105.69 99.45a.47.47 0 0 1 -.2-.06 6.36 6.36 0 0 1 -2-2.75.36.36 0 0 1 .18-.43.37.37 0 0 1 .43.17 5.64 5.64 0 0 0 1.84 2.46.33.33 0 0 1 .06.46.28.28 0 0 1 -.31.15z" fill="#3d3dff"/><path d="m67.56 113.3a.33.33 0 0 1 -.23-.09l-2.24-2.14a.3.3 0 0 1 0-.46.29.29 0 0 1 .46 0l2.24 2.14a.29.29 0 0 1 0 .46.3.3 0 0 1 -.23.09z" fill="#3d3dff"/><path d="m57.15 91.7a.33.33 0 0 1 -.23-.58 15.24 15.24 0 0 0 5.26-10 .32.32 0 0 1 .35-.28.31.31 0 0 1 .29.34 16.07 16.07 0 0 1 -5.5 10.38c0 .11-.08.14-.17.14z" fill="#3d3dff"/><path d="m54.65 85.34a.36.36 0 0 1 -.32-.2l-.4-1.1a.32.32 0 0 1 .2-.41.31.31 0 0 1 .4.2l.4 1.1a.31.31 0 0 1 -.2.41z" fill="#3d3dff"/><path d="m61.21 120.09h-.06a.32.32 0 0 1 -.26-.37c.17-.78.34-1.59.52-2.37a.32.32 0 0 1 .37-.26.32.32 0 0 1 .26.37c-.17.81-.34 1.59-.52 2.37a.28.28 0 0 1 -.31.26zm1-4.42h-.05a.32.32 0 0 1 -.26-.38c.17-.81.34-1.59.51-2.37a.34.34 0 0 1 .38-.26.33.33 0 0 1 .26.38c-.18.78-.35 1.59-.52 2.37a.34.34 0 0 1 -.32.26zm.87-4.48a.31.31 0 0 1 -.32-.35 5.31 5.31 0 0 0 0-.69 10.23 10.23 0 0 0 -.15-1.65.34.34 0 0 1 .26-.38.33.33 0 0 1 .38.26 13.19 13.19 0 0 1 .14 1.77 6.27 6.27 0 0 1 0 .75.3.3 0 0 1 -.31.29zm-.69-4.46a.35.35 0 0 1 -.32-.2l-.84-2.28a.32.32 0 0 1 .21-.41.31.31 0 0 1 .4.21l.83 2.28a.31.31 0 0 1 -.2.4zm-1.53-4.27a.37.37 0 0 1 -.32-.21l-.83-2.25a.32.32 0 0 1 .2-.41.31.31 0 0 1 .4.21l.84 2.28a.32.32 0 0 1 -.2.41zm-1.55-4.28a.35.35 0 0 1 -.31-.18l-.83-2.28a.32.32 0 1 1 .6-.2l.83 2.28a.31.31 0 0 1 -.2.41zm-1.56-4.28a.34.34 0 0 1 -.31-.21l-.84-2.28a.31.31 0 0 1 .2-.4.31.31 0 0 1 .41.2l.79 2.28a.32.32 0 0 1 -.2.41zm-1.55-4.28a.38.38 0 0 1 -.32-.2l-.83-2.29a.32.32 0 1 1 .6-.2l.84 2.28a.32.32 0 0 1 -.2.41z" fill="#3d3dff"/><path d="m60.57 123.33a.32.32 0 0 1 -.26-.37 11.33 11.33 0 0 1 .23-1.16.32.32 0 0 1 .63.11c-.09.38-.14.79-.23 1.16a.33.33 0 0 1 -.37.26z" fill="#3d3dff"/><path d="m81.17 88.46a.21.21 0 0 1 -.14 0l-1-.55a.31.31 0 0 1 -.14-.43.32.32 0 0 1 .43-.15l1 .55a.32.32 0 0 1 .14.44.32.32 0 0 1 -.29.14z" fill="#3d3dff"/><path d="m93.37 94.79c-.06 0-.11 0-.14 0l-2.23-1.15a.32.32 0 0 1 -.14-.44.31.31 0 0 1 .43-.14l2.19 1.13a.32.32 0 0 1 -.15.6zm-4.05-2.11a.22.22 0 0 1 -.15 0l-2.17-1.15a.32.32 0 0 1 -.14-.44.31.31 0 0 1 .43-.14l2.19 1.13a.3.3 0 0 1 .14.43.31.31 0 0 1 -.3.17zm-4.09-2.11c-.06 0-.12 0-.14 0l-2.19-1.15a.32.32 0 0 1 -.14-.44.3.3 0 0 1 .43-.14l2.18 1.16a.32.32 0 0 1 .15.44.34.34 0 0 1 -.29.13z" fill="#3d3dff"/><path d="m96.31 96.33a.22.22 0 0 1 -.15 0l-1-.55a.32.32 0 0 1 -.15-.44.31.31 0 0 1 .43-.14l1 .55a.31.31 0 0 1 .14.43.3.3 0 0 1 -.27.15z" fill="#3d3dff"/><path d="m72.74 86.35h-.08a.3.3 0 0 1 -.23-.4 17.21 17.21 0 0 0 -.52-9.49.32.32 0 1 1 .6-.2 17.88 17.88 0 0 1 .55 9.86.35.35 0 0 1 -.32.23z" fill="#3d3dff"/><path d="m52.29 81.38a.34.34 0 0 1 -.32-.23.32.32 0 0 1 .2-.41l13.47-4.39a.31.31 0 0 1 .4.2.31.31 0 0 1 -.2.4l-13.47 4.4a.09.09 0 0 1 -.08.03z" fill="#3d3dff"/><path d="m102.78 120.41-12.26-4-.72 2.23 12.15 4z" fill="#ff7698"/><path d="m102 122.93a.23.23 0 0 1 -.12 0l-12.14-4a.32.32 0 0 1 -.2-.41l.69-2.22a.38.38 0 0 1 .17-.21.46.46 0 0 1 .26 0l12.29 4a.43.43 0 0 1 .2.18.39.39 0 0 1 0 .26l-.84 2.17a.36.36 0 0 1 -.31.23zm-11.74-4.54 11.53 3.81.61-1.56-11.7-3.84z" fill="#3d3dff"/><path d="m104 117.23-12.47-4.13-1 3.29 12.26 4z" fill="#f2f2f2"/><path d="m102.78 120.76a.18.18 0 0 1 -.11 0l-12.29-4a.31.31 0 0 1 -.2-.4l1-3.27a.3.3 0 0 1 .17-.2.39.39 0 0 1 .26 0l12.48 4.1a.4.4 0 0 1 .21.18.57.57 0 0 1 0 .26l-1.24 3.21a.29.29 0 0 1 -.28.12zm-11.85-4.6 11.68 3.84 1-2.61-11.89-3.87z" fill="#3d3dff"/><path d="m105.51 113.41-12.77-4.16-1.21 3.85 12.47 4.13z" fill="#ffff58"/><path d="m104 117.55a.23.23 0 0 1 -.12 0l-12.48-4.11a.31.31 0 0 1 -.21-.4l1.21-3.85a.43.43 0 0 1 .18-.2.37.37 0 0 1 .25 0l12.78 4.17a.33.33 0 0 1 .2.17.39.39 0 0 1 0 .26l-1.47 3.82a.44.44 0 0 1 -.34.14zm-12.09-4.66 11.92 3.94 1.23-3.21-12.14-4z" fill="#3d3dff"/><path d="m101 125-12-4-.69 2.22 11.82 3.91z" fill="#ff7698"/><path d="m100.19 127.47a.18.18 0 0 1 -.11 0l-11.83-3.91a.31.31 0 0 1 -.2-.4l.69-2.23a.46.46 0 0 1 .17-.2.4.4 0 0 1 .26 0l12 3.93a.33.33 0 0 1 .2.44l-.83 2.17c-.12.11-.23.2-.35.2zm-11.42-4.47 11.22 3.7.6-1.56-11.33-3.73z" fill="#3d3dff"/><path d="m88.37 123.24-1.37 4.49a6.06 6.06 0 0 0 11.43 4l1.78-4.62z" fill="#f2f2f2"/><path d="m92.77 136a5.86 5.86 0 0 1 -2.19-.41 6.38 6.38 0 0 1 -3.91-8l1.38-4.48a.37.37 0 0 1 .17-.2.39.39 0 0 1 .26 0l11.83 3.9a.46.46 0 0 1 .2.17.39.39 0 0 1 0 .26l-1.79 4.63a6.4 6.4 0 0 1 -5.95 4.13zm-4.2-12.32-1.3 4.16a5.77 5.77 0 0 0 3.51 7.16 5.66 5.66 0 0 0 7.28-3.32l1.67-4.28z" fill="#3d3dff"/><path d="m102 122.61-12.15-4-.74 2.4 12 4z" fill="#f2f2f2"/><path d="m101 125.3a.23.23 0 0 1 -.12 0l-11.88-3.96a.32.32 0 0 1 -.2-.41l.75-2.43a.4.4 0 0 1 .17-.2.39.39 0 0 1 .26 0l12.14 4a.33.33 0 0 1 .2.44l-.92 2.37a.42.42 0 0 1 -.4.19zm-11.57-4.48 11.36 3.73.69-1.77-11.48-3.78z" fill="#3d3dff"/><path d="m73.38 133.28-14.5-1.79-.32 4.13 14.18 1.73z" fill="#f2f2f2"/><path d="m72.74 137.67-14.18-1.73a.35.35 0 0 1 -.29-.35l.32-4.13a.36.36 0 0 1 .11-.23.22.22 0 0 1 .23-.06l14.53 1.76a.33.33 0 0 1 .23.12.26.26 0 0 1 .06.26l-.63 4.1a.37.37 0 0 1 -.38.26zm-13.84-2.34 13.58 1.67.55-3.44-13.87-1.68z" fill="#3d3dff"/><path d="m72.74 137.35-14.18-1.73-.17 2.23 14 1.7z" fill="#ff7698"/><path d="m72.4 139.87-14-1.71a.33.33 0 0 1 -.29-.34l.17-2.23a.35.35 0 0 1 .12-.23.22.22 0 0 1 .23-.06l14.14 1.7a.34.34 0 0 1 .23.11.27.27 0 0 1 .06.26l-.35 2.2a.31.31 0 0 1 -.31.3zm-13.67-2.31 13.41 1.65.23-1.57-13.52-1.64z" fill="#3d3dff"/><path d="m74 129.11-14.85-1.85-.31 4.23 14.5 1.79z" fill="#ffff58"/><path d="m73.38 133.6-14.53-1.77a.34.34 0 0 1 -.29-.34l.32-4.26a.36.36 0 0 1 .12-.23.28.28 0 0 1 .26 0l14.85 1.85a.36.36 0 0 1 .23.11.28.28 0 0 1 0 .26l-.66 4.17a.29.29 0 0 1 -.3.21zm-14.16-2.4 13.9 1.7.54-3.5-14.18-1.76z" fill="#3d3dff"/><path d="m71.68 144.27-13.68-1.68-.34 4.57a6.7 6.7 0 0 0 13.34 1.56z" fill="#f2f2f2"/><path d="m64.34 154.73a7 7 0 0 1 -5-2.11 7.11 7.11 0 0 1 -2-5.46l.35-4.57a.32.32 0 0 1 .11-.23.22.22 0 0 1 .23-.06l13.65 1.7a.36.36 0 0 1 .23.11.27.27 0 0 1 .06.26l-.69 4.45a7.09 7.09 0 0 1 -6.56 6 1.5 1.5 0 0 0 -.38-.09zm-6-11.77-.34 4.23a6.41 6.41 0 0 0 1.81 5 6.33 6.33 0 0 0 4.92 1.91 6.42 6.42 0 0 0 6-5.41l.63-4.11z" fill="#3d3dff"/><path d="m72.4 139.55-14-1.7-.21 2.54 13.81 1.68z" fill="#f2f2f2"/><path d="m72 142.41-13.84-1.67a.34.34 0 0 1 -.29-.35l.2-2.54a.41.41 0 0 1 .11-.24.25.25 0 0 1 .24-.05l14 1.7a.37.37 0 0 1 .23.12.29.29 0 0 1 0 .26l-.4 2.51a.28.28 0 0 1 -.25.26zm-13.47-2.31 13.21 1.62.28-1.88-13.35-1.62z" fill="#3d3dff"/><path d="m72 142.07-13.84-1.68-.16 2.23 13.67 1.65z" fill="#ff7698"/><path d="m71.68 144.61-13.68-1.67a.35.35 0 0 1 -.29-.35l.18-2.23a.36.36 0 0 1 .11-.23.22.22 0 0 1 .23-.06l13.84 1.68a.35.35 0 0 1 .23.12.26.26 0 0 1 .06.26l-.36 2.19a.38.38 0 0 1 -.32.29zm-13.32-2.28 13 1.59.23-1.56-13.15-1.62z" fill="#3d3dff"/><path d="m101.74 43.56a.33.33 0 0 1 -.23-.09.32.32 0 0 1 0-.46 4.93 4.93 0 0 1 2.87-1.5.32.32 0 0 1 .38.28.33.33 0 0 1 -.29.38 4 4 0 0 0 -2.47 1.3.34.34 0 0 1 -.26.09z" fill="#3d3dff"/><path d="m46.79 71.52c0-.58-.06-1.16-.08-1.71z" fill="#50a0f0"/><path d="m46.79 71.84a.32.32 0 0 1 -.31-.32l-.09-1.71a.33.33 0 1 1 .66 0l.09 1.71a.38.38 0 0 1 -.35.32z" fill="#3d3dff"/><path d="m49.61 72.36c.4-.9.84-1.77 1.24-2.66z" fill="#50a0f0"/><path d="m49.61 72.67a.32.32 0 0 1 -.14 0 .31.31 0 0 1 -.15-.44l1.24-2.66a.3.3 0 0 1 .43-.14.31.31 0 0 1 .15.43l-1.24 2.64a.28.28 0 0 1 -.29.17z" fill="#3d3dff"/><path d="m81 43.5a12.48 12.48 0 0 1 4.34.87l3.86 1.47a1.22 1.22 0 0 0 1.61-.75l4.72-12.49-5.06-1.94a24.56 24.56 0 0 0 -6.25-1.44l-2.22-.22-25-.65a10.81 10.81 0 0 0 -6.48 1.94 11 11 0 0 0 -4 5.14 11.28 11.28 0 0 0 -.62 5.57l2.16 13.51 12.94-2.36a1.07 1.07 0 0 0 .86-1.22l-1.75-10.29" fill="#05f293"/><path d="m47.74 54.89-2.19-13.82a11.28 11.28 0 0 1 11.45-13.07l25 .67 2.21.2a23.88 23.88 0 0 1 6.33 1.47l5.46 2.06-4.8 12.81a1.6 1.6 0 0 1 -2 .92l-3.85-1.47a13.31 13.31 0 0 0 -4.35-.84v-.64a13.63 13.63 0 0 1 4.43.87l3.86 1.47a.92.92 0 0 0 1.2-.55l4.58-12.2-4.75-1.77a23.73 23.73 0 0 0 -6.15-1.44l-2.17-.26-25.06-.66a10.62 10.62 0 0 0 -10.75 12.36l2.1 13.15 12.6-2.31a.74.74 0 0 0 .6-.84l-1.72-10.33.63-.12 1.73 10.29a1.38 1.38 0 0 1 -1.13 1.59z" fill="#3d3dff"/><path d="m49.32 62.67a6.34 6.34 0 0 0 3.54 4.74l8.92 4.19a2 2 0 0 0 2.59-.89l.12-.23 4.77-9.34-8-3.79.26 1.91-.26-1.91-.8-5.15-12.4 2.29z" fill="#d0fff1"/><path d="m62.62 72.12a1.93 1.93 0 0 1 -1-.23l-8.9-4.19a6.62 6.62 0 0 1 -3.74-5l-1.3-8.18a.33.33 0 0 1 .26-.38l12.4-2.28a.31.31 0 0 1 .26 0 .54.54 0 0 1 .15.21l.77 5 7.86 3.7a.34.34 0 0 1 .17.2.27.27 0 0 1 0 .26l-4.89 9.57a2.2 2.2 0 0 1 -2.04 1.32zm-14.25-17.37 1.24 7.86a6 6 0 0 0 3.39 4.48l8.92 4.2a1.62 1.62 0 0 0 2.15-.76l4.72-9.28-7.16-3.38.17 1.33v.06a.32.32 0 0 1 -.29.32.33.33 0 0 1 -.37-.29l-.26-1.91-.78-4.8z" fill="#3d3dff"/><path d="m106.09 32-3.57 3.27-1.67 1.5 1.67-1.5-7-2.63-4.52 11.79 10.65 4a6.31 6.31 0 0 0 6.47-1.24l5-4.54a2 2 0 0 0 .14-2.8l-.2-.21z" fill="#d0fff1"/><path d="m103.9 49.2a6.83 6.83 0 0 1 -2.36-.44l-10.64-4a.23.23 0 0 1 -.17-.17.39.39 0 0 1 0-.26l4.48-11.83a.33.33 0 0 1 .41-.2l6.79 2.57 3.42-3.15a.36.36 0 0 1 .23-.08.27.27 0 0 1 .23.11l7.16 7.9a2.32 2.32 0 0 1 -.14 3.26l-5 4.54a6.53 6.53 0 0 1 -4.41 1.75zm-12.46-5 10.33 3.91a5.91 5.91 0 0 0 6.13-1.19l4.95-4.54a1.69 1.69 0 0 0 .12-2.34l-6.91-7.63-3.34 3-1.67 1.59a.33.33 0 0 1 -.46 0 .37.37 0 0 1 -.08-.21.28.28 0 0 1 .11-.23l1.3-1.15-6.19-2.41z" fill="#3d3dff"/><path d="m72.71 74.35a5.23 5.23 0 0 0 4.44-9.48l-7.92-3.73-4.77 9.34z" fill="#ffff60"/><path d="m74.93 75.19a5.55 5.55 0 0 1 -2.36-.52l-8.54-4 5.06-9.92 8.17 3.85a5.6 5.6 0 0 1 2.68 7.4 5.48 5.48 0 0 1 -3.14 2.86 5.25 5.25 0 0 1 -1.87.33zm-2.07-1.13a4.94 4.94 0 0 0 3.74.18 4.81 4.81 0 0 0 2.76-2.55 4.9 4.9 0 0 0 -2.36-6.53l-7.62-3.59-4.46 8.76z" fill="#3d3dff"/><path d="m64.49 70.48 4.74-9.34z" fill="#fec1ee"/><path d="m64.49 70.82a.27.27 0 0 1 -.15 0 .31.31 0 0 1 -.17-.28.27.27 0 0 1 0-.15l4.83-9.39a.32.32 0 0 1 .44-.14.32.32 0 0 1 .17.29.25.25 0 0 1 0 .14l-4.78 9.34a.35.35 0 0 1 -.34.19z" fill="#3d3dff"/><path d="m118.14 27.94a5.15 5.15 0 0 0 -7.3-.34l-4.75 4.4 7 7.69 4.75-4.36a5.23 5.23 0 0 0 .3-7.39z" fill="#ffff60"/><path d="m113 40.12-7.39-8.19 5-4.56a5.47 5.47 0 0 1 7.76.37 5.55 5.55 0 0 1 -.37 7.81zm-6.48-8.12 6.53 7.2 4.52-4.2a4.88 4.88 0 0 0 .32-6.88 4.82 4.82 0 0 0 -6.85-.32z" fill="#3d3dff"/><path d="m113.05 39.65-7-7.69z" fill="#fec1ee"/><path d="m113.05 40a.28.28 0 0 1 -.23-.11l-7-7.69a.32.32 0 0 1 0-.47.5.5 0 0 1 .26-.08.41.41 0 0 1 .12.08l7 7.69a.32.32 0 0 1 0 .47.24.24 0 0 1 -.15.11z" fill="#3d3dff"/><path d="m67.51 48.59a26.66 26.66 0 0 0 11.1-10.84z" fill="#05f293"/><path d="m67.65 48.88-.29-.58a26.06 26.06 0 0 0 11-10.7l.58.32a27.25 27.25 0 0 1 -11.29 10.96z" fill="#3d3dff"/><path d="m76 36.27.87-5.75c.14-1 .23-1.88.28-2.84a1.66 1.66 0 0 0 -1.61-1.76l-10.93-.29v1a2.1 2.1 0 0 1 -2.16 2l-1.64-.06" fill="#05f293"/><path d="m76.34 36.33-.63-.09.86-5.75c.14-.9.23-1.85.29-2.81a1.33 1.33 0 0 0 -.35-1 1.32 1.32 0 0 0 -1-.43l-10.51-.25v.72a2.39 2.39 0 0 1 -2.53 2.28l-1.64-.06v-.64l1.64.06a1.77 1.77 0 0 0 1.81-1.65v-1.4l11.25.29a2 2 0 0 1 1.41.64 1.94 1.94 0 0 1 .52 1.47c-.06 1-.14 1.94-.29 2.87z" fill="#3d3dff"/><path d="m75.71 22.71-.55-5.58a5.76 5.76 0 0 0 -6-5.29 5.62 5.62 0 0 0 -5.16 6.16l.57 5.81c.06.61.09 1.21.09 1.82l11.19.29c0-1.07-.06-2.14-.14-3.21z" fill="#ffff60"/><path d="m76.14 26.27-11.83-.27v-.32c0-.69 0-1.24-.08-1.79l-.58-5.89a6.08 6.08 0 0 1 1.35-4.4 5.89 5.89 0 0 1 4.12-2.08 6.09 6.09 0 0 1 6.3 5.58l.58 5.58a28 28 0 0 1 .15 3.24zm-11.14-.96 10.56.29c0-1 0-1.93-.12-2.83l-.55-5.58a5.43 5.43 0 0 0 -5.61-5 5.21 5.21 0 0 0 -3.73 1.81 5.45 5.45 0 0 0 -1.24 3.93l.58 5.81c.03.5.11.99.11 1.57z" fill="#3d3dff"/><path d="m67.33 32.34a15.14 15.14 0 0 0 3.14 2.31z" fill="#50a0f0"/><path d="m70.44 35a.34.34 0 0 1 -.17 0 17.45 17.45 0 0 1 -3.19-2.34.33.33 0 0 1 .46-.46 14.79 14.79 0 0 0 3.07 2.25.33.33 0 0 1 .12.44.37.37 0 0 1 -.29.11z" fill="#3d3dff"/><path d="m66 27.4v1.24z" fill="#50a0f0"/><path d="m66 29a.31.31 0 0 1 -.31-.35v-1.24a.34.34 0 0 1 .67 0v1.24a.38.38 0 0 1 -.36.35z" fill="#3d3dff"/><path d="m67.39 27.31a11.32 11.32 0 0 0 .06 1.44z" fill="#50a0f0"/><path d="m67.42 29.07a.32.32 0 0 1 -.32-.29c0-.49 0-1 0-1.47a.32.32 0 1 1 .63 0 11.8 11.8 0 0 0 .06 1.44.3.3 0 0 1 -.32.32z" fill="#3d3dff"/><path d="m68.77 27.31v1.47z" fill="#50a0f0"/><path d="m68.83 29.1a.32.32 0 0 1 -.32-.32v-1.47a.36.36 0 0 1 .29-.31.38.38 0 0 1 .35.32v1.47a.37.37 0 0 1 -.32.31z" fill="#3d3dff"/><path d="m76.94 18.81-.72-7.26a7.51 7.51 0 0 0 -7.76-6.91 7.31 7.31 0 0 0 -6.76 8l.74 7.57z" fill="#ff7698"/><path d="m62.44 20.57a.29.29 0 0 1 -.31-.29l-.75-7.57a7.72 7.72 0 0 1 1.75-5.71 7.64 7.64 0 0 1 5.3-2.69 7.85 7.85 0 0 1 8.11 7.2l.72 7.26a.3.3 0 0 1 -.29.32l-14.5 1.41a0 0 0 0 1 -.03.07zm6.56-15.57a2.17 2.17 0 0 0 -.44 0 6.93 6.93 0 0 0 -6.56 7.62l.69 7.26 13.91-1.36-.66-6.94a7.23 7.23 0 0 0 -6.94-6.58z" fill="#3d3dff"/><path d="m76.94 19.13a.31.31 0 0 1 -.31-.29.32.32 0 0 1 .28-.38l3.31-.46a6.4 6.4 0 0 0 4.23-2.52.33.33 0 0 1 .46-.06.33.33 0 0 1 .06.47 7.1 7.1 0 0 1 -4.66 2.77l-3.31.47z" fill="#3d3dff"/><path d="m66.67 8.77a.28.28 0 0 1 -.14 0 .38.38 0 0 1 -.15-.44 9.48 9.48 0 0 1 1.39-2 .31.31 0 0 1 .46 0 .32.32 0 0 1 0 .46 11.36 11.36 0 0 0 -1.23 1.84.34.34 0 0 1 -.33.14z" fill="#3d3dff"/><path d="m65.41 13.86a.31.31 0 0 1 -.32-.31v-.06a10.67 10.67 0 0 1 .49-3.18.31.31 0 0 1 .4-.21.32.32 0 0 1 .2.41 11 11 0 0 0 -.46 3 .31.31 0 0 1 -.31.35z" fill="#3d3dff"/><path d="m65.64 18.32a.32.32 0 0 1 -.32-.32l-.14-2.34a.33.33 0 1 1 .66 0l.16 2.34a.35.35 0 0 1 -.34.35z" fill="#3d3dff"/><path d="m71.91 15.8a2.34 2.34 0 1 0 -2.33-2.34 2.33 2.33 0 0 0 2.33 2.34z" fill="#05f293"/><path d="m71.91 16.15a2.66 2.66 0 0 1 -.91-.15 2.69 2.69 0 0 1 -1.5-1.41 2.72 2.72 0 0 1 0-2.06 2.67 2.67 0 0 1 3.45-1.56 2.68 2.68 0 0 1 .14 5 2.46 2.46 0 0 1 -1.18.18zm0-4.72a2.06 2.06 0 0 0 -1.91 1.31 2 2 0 0 0 .06 1.56 2.16 2.16 0 0 0 1.12 1.07 1.94 1.94 0 0 0 1.55-.06 2.15 2.15 0 0 0 1.07-1.13 2 2 0 0 0 -1.18-2.6 1.56 1.56 0 0 0 -.71-.15z" fill="#3d3dff"/><path d="m117.08 37.37.29-13.18a2 2 0 0 1 2.1-1.94 2 2 0 0 1 1.87 2.2l-1.34 13.12a1.46 1.46 0 0 1 -2.91-.2z" fill="#50a0f0"/><path d="m118.52 39.19h-.09a1.76 1.76 0 0 1 -1.67-1.79l.29-13.19a2.32 2.32 0 0 1 2.45-2.21 2.32 2.32 0 0 1 1.64.81 2.24 2.24 0 0 1 .54 1.73l-1.35 13.13a1.87 1.87 0 0 1 -1.81 1.52zm.8-16.62a1.6 1.6 0 0 0 -1.12.43 1.58 1.58 0 0 0 -.52 1.19l-.28 13.18a1.16 1.16 0 0 0 1.06 1.16 1.12 1.12 0 0 0 1.18-1l1.36-13.14a1.61 1.61 0 0 0 -.37-1.25 1.69 1.69 0 0 0 -1.18-.57z" fill="#3d3dff"/><path d="m120.1 16.73a.84.84 0 0 0 -.92.57l-1 2.75a1.65 1.65 0 0 0 1.33 2.2 1.62 1.62 0 0 0 1.78-1.82l-.37-2.92a.91.91 0 0 0 -.82-.78z" fill="#ff7698"/><path d="m119.64 22.6h-.23a1.94 1.94 0 0 1 -1.58-2.6l1-2.74a1.23 1.23 0 0 1 1.27-.78 1.2 1.2 0 0 1 1.06 1l.38 2.92a1.92 1.92 0 0 1 -.54 1.6 2.08 2.08 0 0 1 -1.36.6zm.36-5.6a.54.54 0 0 0 -.51.38l-1 2.75a1.21 1.21 0 0 0 .12 1.12 1.18 1.18 0 0 0 1 .61 1.24 1.24 0 0 0 1.06-.37 1.36 1.36 0 0 0 .37-1.07l-.4-2.92a.56.56 0 0 0 -.49-.5z" fill="#3d3dff"/><path d="m18.25 99.1a2.24 2.24 0 0 0 2-2.49 2.26 2.26 0 0 0 -2.5-2l-.37.09s0 0 0-.06l.29-.26a2.26 2.26 0 0 0 -.09-3.21 2.22 2.22 0 0 0 -3.19.09.94.94 0 0 0 -.23.32s0 0-.06 0a1.68 1.68 0 0 0 .06-.41 2.25 2.25 0 1 0 -4.49-.29v.41s0 0-.06 0a2.08 2.08 0 0 0 -.2-.35 2.27 2.27 0 1 0 -3.65 2.69 3.74 3.74 0 0 0 .25.29s0 0 0 .06-.23-.09-.38-.15a2.27 2.27 0 0 0 -1.09 4.4 1.57 1.57 0 0 0 .37 0v.06a1.92 1.92 0 0 0 -.37.15 2.28 2.28 0 0 0 -1 3 2.25 2.25 0 0 0 3 1c.12-.05.23-.14.35-.2s0 0 .06 0a2.16 2.16 0 0 0 -.21.35 2.27 2.27 0 0 0 4.15 1.85 1.82 1.82 0 0 0 .11-.38 1.67 1.67 0 0 0 .06.38 2.26 2.26 0 1 0 4.34-1.25 1.35 1.35 0 0 0 -.14-.37s0 0 .06 0 .2.17.28.26a2.27 2.27 0 0 0 2.54-3.76 2.08 2.08 0 0 0 -.35-.2v-.06c.21.04.32.07.46.04z" fill="#50a0f0"/><path d="m13.27 106.47a2.82 2.82 0 0 1 -1.26-.31 2.46 2.46 0 0 1 -1.07-1.16 2.3 2.3 0 0 1 -1.23 1 2.55 2.55 0 0 1 -2 0 2.6 2.6 0 0 1 -1.44-3 2.58 2.58 0 0 1 -3.05-1.36 2.64 2.64 0 0 1 .84-3.27 2.59 2.59 0 0 1 1.2-5 2.64 2.64 0 0 1 .79-3.37 2.54 2.54 0 0 1 1.95-.44 2.4 2.4 0 0 1 1.41.72 2.65 2.65 0 0 1 .8-1.36 2.48 2.48 0 0 1 1.87-.63 2.6 2.6 0 0 1 1.79.87 2.54 2.54 0 0 1 .63 1.44 2.58 2.58 0 0 1 3.34.2 2.62 2.62 0 0 1 .34 3.33 2.5 2.5 0 0 1 1.47.58 2.45 2.45 0 0 1 .95 1.73v.12a2.62 2.62 0 0 1 -1.9 2.77 2.36 2.36 0 0 1 .75 1.39 2.48 2.48 0 0 1 -.4 1.94 2.63 2.63 0 0 1 -1.64 1.1 2.39 2.39 0 0 1 -1.56-.21 2.61 2.61 0 0 1 -1.85 2.81 1.85 1.85 0 0 1 -.73.11zm-2.27-2.68h.09a.32.32 0 0 1 .31.28 1.16 1.16 0 0 0 .06.35 1.92 1.92 0 0 0 2.39 1.33 1.83 1.83 0 0 0 1.15-.92 1.88 1.88 0 0 0 .17-1.48 2.46 2.46 0 0 0 -.17-.35.32.32 0 0 1 .11-.4.33.33 0 0 1 .43 0 2.53 2.53 0 0 0 .26.23 1.82 1.82 0 0 0 1.44.29 1.91 1.91 0 0 0 1.53-2.26 2.05 2.05 0 0 0 -.77-1.21 2.48 2.48 0 0 0 -.29-.17.3.3 0 0 1 -.17-.38v-.1a.35.35 0 0 1 .35-.26h.34a1.94 1.94 0 0 0 1.77-2.1v-.08a1.94 1.94 0 0 0 -2.13-1.71 1.47 1.47 0 0 0 -.32.06.29.29 0 0 1 -.37-.17.4.4 0 0 1 .08-.47.75.75 0 0 0 .24-.27 1.94 1.94 0 0 0 -.05-2.75 1.92 1.92 0 0 0 -2.74.06c-.08.09-.14.18-.2.26a.31.31 0 0 1 -.4.12.34.34 0 0 1 -.2-.38 1.55 1.55 0 0 0 0-.34 1.93 1.93 0 1 0 -3.85-.23v.34a.34.34 0 0 1 -.23.35h-.04a.39.39 0 0 1 -.4-.17 3.22 3.22 0 0 0 -.17-.26 2 2 0 0 0 -1.22-.8 1.91 1.91 0 0 0 -1.44.34 2 2 0 0 0 -.43 2.72 1.79 1.79 0 0 0 .23.26.29.29 0 0 1 0 .41.32.32 0 0 1 -.4.15c-.09 0-.2-.09-.32-.12a1.94 1.94 0 0 0 -.92 3.76l.28.08a.3.3 0 0 1 .28.29v.06a.3.3 0 0 1 -.23.34 1.68 1.68 0 0 0 -.31.12 2 2 0 0 0 -1 1.13 1.84 1.84 0 0 0 .09 1.47 1.94 1.94 0 0 0 2.58.9 3.22 3.22 0 0 0 .29-.17.3.3 0 0 1 .4 0 .31.31 0 0 1 .06.41 1.85 1.85 0 0 0 -.17.29 2 2 0 0 0 1 2.57 1.93 1.93 0 0 0 2.53-1 2.39 2.39 0 0 0 .11-.32c.05-.02.2-.1.37-.1z" fill="#3d3dff"/><path d="m19.32 159.5 24.94-3.32.17 18.18a8.87 8.87 0 0 0 8.2 8.91l27.25 2a5.74 5.74 0 0 0 1.32-11.4l-20.51-3.29 2.47-26.26a31.33 31.33 0 0 0 -2-13.9l-.87-2.42-2.08-5.34a26.13 26.13 0 0 0 -10.12-12.52l-9.12-6-22.62 13.99 15.65 12.4 2.27 6.28 1.93 5.19" fill="#ffff58"/><path d="m80.31 185.58a2.08 2.08 0 0 1 -.43 0l-27.25-2a9.21 9.21 0 0 1 -8.51-9.23l-.18-17.81-24.6 3.27a.33.33 0 0 1 -.08-.66l24.94-3.33a.45.45 0 0 1 .26.09.35.35 0 0 1 .12.23l.17 18.19a8.56 8.56 0 0 0 7.91 8.58l27.25 2a5.5 5.5 0 0 0 4.26-1.62 5.35 5.35 0 0 0 1.49-4.29 5.42 5.42 0 0 0 -4.52-4.8l-20.51-3.29a.31.31 0 0 1 -.26-.35l2.48-26.25a31.26 31.26 0 0 0 -2-13.77l-3-7.66a25.74 25.74 0 0 0 -10-12.38l-8.85-5.93-22 13.53 15.3 12.11a.3.3 0 0 1 .12.15l4.17 11.51a.31.31 0 0 1 -.2.4.32.32 0 0 1 -.41-.2l-4.18-11.42-15.59-12.35a.33.33 0 0 1 -.12-.29.31.31 0 0 1 .15-.26l22.61-13.91a.43.43 0 0 1 .35 0l9.12 6a26.35 26.35 0 0 1 10.24 12.69l3 7.67a31.65 31.65 0 0 1 2 14.05l-2.45 26 20.2 3.24a6.07 6.07 0 0 1 3.39 10.21 5.82 5.82 0 0 1 -4.39 1.88z" fill="#3d3dff"/><path d="m44.29 148.23v8z" fill="#fec1ee"/><path d="m44.26 156.5a.33.33 0 0 1 -.32-.32v-8a.32.32 0 0 1 .32-.32.31.31 0 0 1 .31.32v8a.33.33 0 0 1 -.31.32z" fill="#3d3dff"/><path d="m42.91 109.34a10.24 10.24 0 0 1 3.1-1.59l12.43-4-.26 3.52a1.52 1.52 0 0 0 1.41 1.62l9.41.52a1.5 1.5 0 0 0 1.59-1.41l.89-12.35a6.59 6.59 0 0 0 -.64-3.47 6.19 6.19 0 0 0 -7.42-3.12l-19.42 6.25a36.39 36.39 0 0 0 -10 5.06l-20.81 15.21 10.24 8.13" fill="#ffff60"/><path d="m23.26 123.94-10.59-8.39 21.2-15.47a35.69 35.69 0 0 1 10.07-5.08l19.4-6.22a6.54 6.54 0 0 1 8.45 6.94l-.89 12.28a1.79 1.79 0 0 1 -1.9 1.67l-9.41-.52a1.93 1.93 0 0 1 -1.26-.6 1.87 1.87 0 0 1 -.46-1.33l.23-3.07-12 3.85a10.36 10.36 0 0 0 -3 1.53l-.38-.52a11.44 11.44 0 0 1 3.2-1.65l12.89-4.13-.29 4a1.18 1.18 0 0 0 .29.87 1.22 1.22 0 0 0 .8.41l9.41.52a1.21 1.21 0 0 0 1.24-1.1l.89-12.35a6.15 6.15 0 0 0 -.6-3.29 5.9 5.9 0 0 0 -7.05-3l-19.36 6.31a35.12 35.12 0 0 0 -9.89 5l-20.52 15 9.9 7.87z" fill="#3d3dff"/><path d="m68.11 109.4-7.65-.4-.46 6.21a4 4 0 0 0 3.42 4.28 3.85 3.85 0 0 0 4.23-3.56z" fill="#ff7698"/><path d="m63.8 119.8a3.24 3.24 0 0 1 -.44 0 4.31 4.31 0 0 1 -3.71-4.63l.46-6.22a.31.31 0 0 1 .35-.29l7.65.41a.38.38 0 0 1 .23.11.34.34 0 0 1 .09.24l-.49 6.53a4.18 4.18 0 0 1 -1.47 2.89 4 4 0 0 1 -2.67.96zm-3-10.49-.44 5.9a3.66 3.66 0 0 0 3.14 3.93 3.42 3.42 0 0 0 2.62-.81 3.38 3.38 0 0 0 1.24-2.46l.46-6.21z" fill="#3d3dff"/><path d="m60.89 168.41 2.3-24.12a31.48 31.48 0 0 0 -2-13.9l-.9-2.35-3.07-7.86a23.71 23.71 0 0 0 -6.34-9.18l-.75-.67a1.76 1.76 0 0 0 -2.13-.14l-2.19 1.47a6.88 6.88 0 0 1 -10-2.63l-3.65-7.23-2.94 2.14 4 10.41a5.2 5.2 0 0 1 -2.07 6.27l-.09.06a5.3 5.3 0 0 1 -6.07-.29c-3.48-2.72-8.86-6.88-8.86-6.88l-2.88 2.11 18.87 14.88 2.27 6.28 1.9 5.23-17.69 4.16a8.08 8.08 0 0 0 -6.3 10l2.76 11 15.56-2.58-1.38-6 15-2.31.17 18.18a8.87 8.87 0 0 0 8.2 8.91l11.8.84 2.53-15z" fill="#05f293"/><path d="m64.43 184.46-11.83-.84a9.21 9.21 0 0 1 -8.51-9.23l-.18-17.81-14.29 2.23 1.23 5.64a.29.29 0 0 1 -.06.26.32.32 0 0 1 -.2.14l-15.59 2.58a.37.37 0 0 1 -.38-.24l-2.76-10.95a8.46 8.46 0 0 1 6.59-10.36l17.32-4.07-4-11.08-18.77-14.89a.31.31 0 0 1 -.11-.26.38.38 0 0 1 .14-.26l2.88-2.11a.29.29 0 0 1 .37 0l8.89 6.88a5 5 0 0 0 5.7.26h.09a4.92 4.92 0 0 0 2-5.9l-4-10.41a.33.33 0 0 1 .12-.38l2.92-2.19a.33.33 0 0 1 .26-.06.28.28 0 0 1 .2.18l3.66 7.23a6.72 6.72 0 0 0 4.2 3.41 6.54 6.54 0 0 0 5.32-.9l2.19-1.47a2.07 2.07 0 0 1 2.53.17l.75.67a24.06 24.06 0 0 1 6.44 9.3l3.94 10.2a31.69 31.69 0 0 1 2 14.06l-2.28 23.82 5.79.69a.37.37 0 0 1 .23.12.3.3 0 0 1 .06.26l-2.54 15c-.03.19-.15.31-.32.31zm-20.17-28.6a.25.25 0 0 1 .2.09.33.33 0 0 1 .12.23l.17 18.18a8.57 8.57 0 0 0 7.91 8.64l11.51.84 2.44-14.34-5.75-.69a.35.35 0 0 1 -.29-.35l2.3-24.12a31.09 31.09 0 0 0 -2-13.76l-3.87-10.26a23.41 23.41 0 0 0 -6.27-9l-.75-.66a1.44 1.44 0 0 0 -1.76-.12l-2.22 1.46a7.21 7.21 0 0 1 -10.45-2.75l-3.48-6.88-2.42 1.76 3.92 10.18a5.54 5.54 0 0 1 -2.23 6.69l-.08.06a5.66 5.66 0 0 1 -6.45-.32c-3.11-2.4-7.68-6-8.69-6.74l-2.33 1.71 18.5 14.63a.32.32 0 0 1 .12.14l4.17 11.52a.27.27 0 0 1 0 .26.43.43 0 0 1 -.2.18l-17.78 4.02a7.71 7.71 0 0 0 -5.1 3.47 7.82 7.82 0 0 0 -1 6.1l2.7 10.67 14.93-2.46-1.24-5.63a.31.31 0 0 1 .06-.26.34.34 0 0 1 .23-.15l15-2.31s.05-.03.08-.03z" fill="#3d3dff"/><path d="m25.33 159.24a.3.3 0 0 1 -.33-.24.3.3 0 0 1 .29-.34l3.91-.41a.31.31 0 0 1 .35.29.31.31 0 0 1 -.29.35l-3.91.4z" fill="#3d3dff"/><path d="m32.12 151.72a.33.33 0 0 1 -.32-.26.32.32 0 0 1 .26-.37l1.15-.2a.33.33 0 0 1 .38.26.33.33 0 0 1 -.26.37l-1.15.2s-.03 0-.06 0z" fill="#3d3dff"/><path d="m26.85 152.68a.34.34 0 0 1 -.31-.26.33.33 0 0 1 .26-.38l2.82-.52a.32.32 0 0 1 .37.26.33.33 0 0 1 -.26.38l-2.82.52z" fill="#3d3dff"/><path d="m23.26 153.32a.34.34 0 0 1 -.32-.27.32.32 0 0 1 .26-.37l1.15-.2a.31.31 0 0 1 .37.26.32.32 0 0 1 -.25.37l-1.16.21z" fill="#3d3dff"/><path d="m29.18 168.64-13.18 2.36.77 3.06 13-2.37z" fill="#f2f2f2"/><path d="m16.78 174.45a.31.31 0 0 1 -.31-.23l-.78-3.06a.42.42 0 0 1 0-.27c0-.08.11-.11.2-.14l13.18-2.4a.32.32 0 0 1 .37.26l.58 3.09a.23.23 0 0 1 -.06.24.72.72 0 0 1 -.2.14l-13 2.37zm-.37-3.15.6 2.43 12.38-2.26-.47-2.47z" fill="#3d3dff"/><path d="m28.46 164.82-13.46 2.23 1 4 13.17-2.4z" fill="#ff7698"/><path d="m16 171.39a.32.32 0 0 1 -.32-.23l-1-4a.4.4 0 0 1 0-.26.36.36 0 0 1 .23-.14l13.47-2.23a.32.32 0 0 1 .37.26l.72 3.82a.22.22 0 0 1 -.06.23.44.44 0 0 1 -.2.15l-13.18 2.37s-.03.03-.03.03zm-.61-4 .84 3.35 12.57-2.31-.6-3.18z" fill="#3d3dff"/><path d="m30.28 174.45-12.83 2.34 1.61 6.31a6.55 6.55 0 0 0 5.72 5 6.35 6.35 0 0 0 6.68-7.52z" fill="#f2f2f2"/><path d="m25.24 188.45a2.74 2.74 0 0 1 -.49 0 6.83 6.83 0 0 1 -6-5.24l-1.58-6.3a.39.39 0 0 1 0-.26c0-.09.11-.12.2-.14l12.83-2.35a.32.32 0 0 1 .37.26l1.15 6.13a6.64 6.64 0 0 1 -6.5 7.93zm-7.36-11.4 1.52 6a6.11 6.11 0 0 0 5.44 4.74 5.93 5.93 0 0 0 4.92-2 6.08 6.08 0 0 0 1.41-5.15l-1.17-5.81z" fill="#3d3dff"/><path d="m29.79 171.73-13 2.37.69 2.69 12.81-2.34z" fill="#50a0f0"/><g fill="#3d3dff"><path d="m17.47 177.14a.31.31 0 0 1 -.31-.23l-.69-2.69a.39.39 0 0 1 0-.26c0-.09.11-.12.2-.14l13-2.38a.34.34 0 0 1 .38.26l.51 2.72a.23.23 0 0 1 -.05.23.54.54 0 0 1 -.21.15l-12.8 2.34zm-.28-2.78.51 2.06 12.2-2.23-.4-2.08z"/><path d="m44.26 156.5a.33.33 0 0 1 -.32-.32.32.32 0 0 1 .64 0 .33.33 0 0 1 -.32.32z"/><path d="m36.75 134.64a.3.3 0 0 1 -.2-.09l-4.69-3.85a.33.33 0 0 1 .4-.52l4.74 3.82a.32.32 0 0 1 .06.46.25.25 0 0 1 -.31.18z"/><path d="m37.18 144.87a.33.33 0 0 1 -.31-.2l-.95-2.54a.32.32 0 1 1 .6-.21l.95 2.55a.31.31 0 0 1 -.2.4z"/><path d="m60.69 170.87c-.2 0-.35-.18-.32-.35l.17-2.14a.33.33 0 0 1 .35-.29.32.32 0 0 1 .29.35l-.18 2.14a.3.3 0 0 1 -.31.29z"/><path d="m46.53 118.33a.34.34 0 0 1 -.29-.17l-.51-1a.31.31 0 0 1 .14-.44.3.3 0 0 1 .43.15l.52 1a.3.3 0 0 1 -.14.43 1.3 1.3 0 0 1 -.15.03z"/><path d="m58.44 177.4h-.08a5.69 5.69 0 0 1 -2.25-1.13.33.33 0 0 1 0-.46.34.34 0 0 1 .47 0 4.73 4.73 0 0 0 2 1 .32.32 0 0 1 .23.41.38.38 0 0 1 -.37.18zm-3.44-2.69a.34.34 0 0 1 -.29-.17 5.72 5.72 0 0 1 -.63-2.46.32.32 0 1 1 .63 0 5.13 5.13 0 0 0 .55 2.17.3.3 0 0 1 -.14.43.31.31 0 0 1 -.12.03zm-.52-4.42a.31.31 0 0 1 -.31-.35l.08-2.4a.34.34 0 0 1 .35-.32.33.33 0 0 1 .31.35l-.08 2.4a.35.35 0 0 1 -.33.32zm.15-4.48a.31.31 0 0 1 -.32-.35l.09-2.4a.33.33 0 0 1 .34-.32.34.34 0 0 1 .32.35l-.09 2.4a.37.37 0 0 1 -.32.32zm.17-4.51a.32.32 0 0 1 -.32-.35l.09-2.4a.31.31 0 0 1 .34-.32.33.33 0 0 1 .32.35l-.09 2.4a.34.34 0 0 1 -.32.32zm.14-4.49a.3.3 0 0 1 -.31-.34l.08-2.4a.32.32 0 0 1 .32-.32.33.33 0 0 1 .32.35l-.09 2.4a.31.31 0 0 1 -.26.31zm.15-4.51a.31.31 0 0 1 -.32-.34l.09-2.4a.32.32 0 0 1 .34-.32.33.33 0 0 1 .32.35l-.09 2.4a.34.34 0 0 1 -.32.31zm.14-4.48a.31.31 0 0 1 -.32-.35l.09-2.4a.33.33 0 0 1 .66 0l-.08 2.4a.37.37 0 0 1 -.33.35zm.14-4.51c-.2 0-.31-.14-.31-.35l.06-1.79v-.61a.31.31 0 0 1 .31-.31.32.32 0 0 1 .32.31v.61l-.04 1.83a.31.31 0 0 1 -.32.31zm0-4.48a.3.3 0 0 1 -.31-.29 21.1 21.1 0 0 0 -.38-2.34.33.33 0 1 1 .64-.12 24.1 24.1 0 0 1 .37 2.43.31.31 0 0 1 -.29.35zm-.92-4.4a.32.32 0 0 1 -.31-.23c-.26-.75-.55-1.47-.87-2.19a.34.34 0 0 1 .15-.44.33.33 0 0 1 .43.15 23.39 23.39 0 0 1 .89 2.28.32.32 0 0 1 -.2.41.15.15 0 0 1 -.07.02zm-1.84-4.1a.34.34 0 0 1 -.29-.17l-1.07-2.16a.31.31 0 0 1 .14-.44.31.31 0 0 1 .44.15l1.09 2.14a.3.3 0 0 1 -.14.43.22.22 0 0 1 -.15.05zm-2-4a.32.32 0 0 1 -.29-.17l-1.08-2.16a.31.31 0 0 1 .14-.44.3.3 0 0 1 .43.15l1.1 2.14a.31.31 0 0 1 -.15.43 1.06 1.06 0 0 0 -.14.06zm-2-4a.32.32 0 0 1 -.29-.17l-1.13-2.16a.32.32 0 0 1 .15-.44.31.31 0 0 1 .43.15l1.09 2.14a.3.3 0 0 1 -.14.43.25.25 0 0 1 -.14.04z"/><path d="m61.64 178.09h-.06l-1.15-.26a.32.32 0 0 1 .11-.63l1.16.26a.32.32 0 0 1 .25.37.35.35 0 0 1 -.31.26z"/><path d="m41.56 139.7a.38.38 0 0 1 -.18 0 .33.33 0 0 1 -.11-.44 51.59 51.59 0 0 0 4.95-12.17.32.32 0 0 1 .4-.23.33.33 0 0 1 .23.4 52.43 52.43 0 0 1 -5 12.32.33.33 0 0 1 -.29.12z"/><path d="m58.85 149.47a.47.47 0 0 1 -.2-.06 18.3 18.3 0 0 1 -4.75-5.41.32.32 0 0 1 .11-.43.31.31 0 0 1 .43.12 17.7 17.7 0 0 0 4.56 5.2.33.33 0 0 1 .06.46.31.31 0 0 1 -.21.12z"/><path d="m42.85 127.67a.22.22 0 0 1 -.14 0 .31.31 0 0 1 -.15-.43 4.9 4.9 0 0 0 .38-3.33.29.29 0 0 1 .23-.37.34.34 0 0 1 .4.23 5.67 5.67 0 0 1 -.43 3.76.32.32 0 0 1 -.29.14z"/><path d="m37.82 130.59a5.67 5.67 0 0 1 -3.2-1.24l-3.48-2.87a.32.32 0 0 1 -.11-.23.56.56 0 0 1 0-.23l6.65-8.18a.32.32 0 0 1 .46-.06l2.86 2.28a.34.34 0 0 1 .06.47.32.32 0 0 1 -.46 0l-2.53-2.08-6.25 7.69 3.18 2.71a4.77 4.77 0 0 0 2.82 1.1.35.35 0 0 1 .32.35c-.04.14-.14.29-.32.29z"/><path d="m33.41 128.28a.27.27 0 0 1 -.2-.09.33.33 0 0 1 0-.46l.78-.87a.31.31 0 0 1 .46 0 .33.33 0 0 1 0 .46l-.78.87a.48.48 0 0 1 -.26.09z"/><path d="m35.2 126.22a.26.26 0 0 1 -.2-.08.32.32 0 0 1 0-.47l1.18-1.33a.33.33 0 0 1 .46 0 .34.34 0 0 1 0 .47l-1.18 1.33a.39.39 0 0 1 -.26.08z"/><path d="m37.35 123.74a.27.27 0 0 1 -.2-.09.33.33 0 0 1 0-.46l.78-.87a.32.32 0 0 1 .46 0 .31.31 0 0 1 0 .46l-.78.87a.27.27 0 0 1 -.26.09z"/><path d="m38.33 138.05a.3.3 0 0 1 -.28-.2.35.35 0 0 1 .17-.44l1.06-.46a.33.33 0 0 1 .43.17.35.35 0 0 1 -.17.44l-1.06.46a.33.33 0 0 1 -.15.03z"/><path d="m41.09 136.86a.3.3 0 0 1 -.28-.2.33.33 0 0 1 .17-.43l2-.84a.34.34 0 0 1 .43.17.35.35 0 0 1 -.17.44l-2 .83a.27.27 0 0 1 -.15.03zm3.69-1.56a.3.3 0 0 1 -.29-.2.33.33 0 0 1 .17-.43l2-.84a.34.34 0 0 1 .43.17.33.33 0 0 1 -.17.43l-2 .84c-.06 0-.08.03-.14.03zm3.68-1.59a.33.33 0 0 1 -.29-.2.34.34 0 0 1 .18-.43l1.95-.84a.33.33 0 0 1 .26.6l-2 .84a.27.27 0 0 1 -.1.03zm3.68-1.56a.3.3 0 0 1 -.28-.2.35.35 0 0 1 .17-.44l1.95-.83a.35.35 0 0 1 .44.17.34.34 0 0 1 -.18.43l-2 .84a1.3 1.3 0 0 0 -.1.03z"/><path d="m55.83 130.56a.32.32 0 0 1 -.29-.2.35.35 0 0 1 .17-.44l1.07-.46a.34.34 0 0 1 .43.17.35.35 0 0 1 -.18.44l-1.06.46a.31.31 0 0 1 -.14.03z"/><path d="m44.26 156.5a.33.33 0 0 1 -.32-.32v-2.72a4.73 4.73 0 0 0 -2.31-4 .32.32 0 0 1 -.11-.43.32.32 0 0 1 .43-.12 5.52 5.52 0 0 1 2.62 4.54l.06 2.72a.33.33 0 0 1 -.37.33z"/></g><path d="m70.1 172.05-2 12.35 3.17.2 2-12z" fill="#f2f2f2"/><path d="m71.22 185-3.17-.23a.37.37 0 0 1 -.23-.12.29.29 0 0 1 0-.26l2-12.32a.32.32 0 0 1 .37-.26l3.08.46a.21.21 0 0 1 .2.15.65.65 0 0 1 .06.23l-2 12.06a.33.33 0 0 1 -.31.29zm-2.79-.87 2.5.17 1.9-11.45-2.47-.4z" fill="#3d3dff"/><path d="m66.59 171.5-2.16 12.64 3.62.26 2-12.35z" fill="#ff7698"/><path d="m68.05 184.72-3.65-.26a.35.35 0 0 1 -.23-.12.27.27 0 0 1 -.06-.26l2.16-12.64a.33.33 0 0 1 .37-.26l3.51.58a.23.23 0 0 1 .21.15.33.33 0 0 1 0 .23l-2 12.32a.32.32 0 0 1 -.31.26zm-3.25-.9 3 .2 1.93-11.71-2.87-.46z" fill="#3d3dff"/><path d="m73.2 172.57-2 12 2.76.2 2-11.79z" fill="#50a0f0"/><path d="m74 185.15-2.79-.2a.35.35 0 0 1 -.23-.12.27.27 0 0 1 -.06-.26l2-12.06a.32.32 0 0 1 .37-.26l2.73.44a.23.23 0 0 1 .21.14.36.36 0 0 1 0 .23l-2 11.83a.35.35 0 0 1 -.23.26zm-2.39-.84 2.1.15 1.84-11.19-2.07-.35z" fill="#3d3dff"/><path d="m81.2 173.84-5.29-.84-2 11.82 5.93.44a5.76 5.76 0 0 0 1.32-11.43z" fill="#f2f2f2"/><path d="m80.31 185.58a2.08 2.08 0 0 1 -.43 0l-5.88-.46a.37.37 0 0 1 -.23-.12.29.29 0 0 1 -.06-.26l2-11.82a.32.32 0 0 1 .37-.26l5.3.84a6.08 6.08 0 0 1 -1 12.08zm-6-1.07 5.59.41a5.46 5.46 0 0 0 4.25-1.62 5.33 5.33 0 0 0 1.5-4.31 5.42 5.42 0 0 0 -4.52-4.8l-5-.81z" fill="#3d3dff"/><path d="m22.77 145.19a7 7 0 0 0 .06-1.65l-1.56-15.26a4.94 4.94 0 0 1 2.19-4.6l-10.24-8.13a11.45 11.45 0 0 0 -4.64 10.45l1.82 18-1.13 6.85a1.8 1.8 0 0 0 1.47 2.08l8.69 1.48a1.78 1.78 0 0 0 2.07-1.51z" fill="#ffff60"/><path d="m19.75 154.76a1.38 1.38 0 0 1 -.35 0l-8.69-1.47a2.16 2.16 0 0 1 -1.71-2.49l1.08-6.8-1.81-18a11.84 11.84 0 0 1 4.73-10.71l.2-.14 10.8 8.56-.37.26a4.57 4.57 0 0 0 -2 4.31l1.55 15.26a6.77 6.77 0 0 1 -.06 1.74l-1.27 7.72a2.07 2.07 0 0 1 -.87 1.39 2.36 2.36 0 0 1 -1.23.37zm-6.53-38.76a11.19 11.19 0 0 0 -4.32 10l1.81 18-1.12 6.91a1.48 1.48 0 0 0 1.21 1.71l8.69 1.47a1.41 1.41 0 0 0 1.09-.26 1.47 1.47 0 0 0 .61-1l1.26-7.72a6.8 6.8 0 0 0 .06-1.56l-1.51-15.19a5.29 5.29 0 0 1 1.95-4.65z" fill="#3d3dff"/><path d="m11.17 153-.89 5.46a4.17 4.17 0 0 0 3.14 4.77 4 4 0 0 0 4.72-3.23l.92-5.59z" fill="#ff7698"/><path d="m14.19 163.64a4 4 0 0 1 -.83-.09 4.44 4.44 0 0 1 -3.4-5.12l.9-5.46a.2.2 0 0 1 .14-.2.3.3 0 0 1 .23-.06l7.88 1.29a.32.32 0 0 1 .26.37l-.92 5.63a4.41 4.41 0 0 1 -1.78 2.87 4.33 4.33 0 0 1 -2.48.77zm-2.76-10.24-.83 5.15a3.8 3.8 0 0 0 2.9 4.39 3.64 3.64 0 0 0 4.32-3l.86-5.27z" fill="#3d3dff"/><path d="m31.05 108.73-1.84-4.8-.46.35a1.41 1.41 0 0 1 -1.87-.18l-.29-.31-.59-.79-9.44 6.41a.86.86 0 0 0 -.2 1.22 39.14 39.14 0 0 0 2.64 3.3" fill="#ffff60"/><path d="m18.8 114.14a36.53 36.53 0 0 1 -2.74-3.33 1.27 1.27 0 0 1 -.2-.89 1.23 1.23 0 0 1 .49-.79l9.65-6.59.8 1 .29.29a1.09 1.09 0 0 0 1.44.15l.81-.61 2 5.2-.6.24-1.7-4.43-.15.09a1.73 1.73 0 0 1 -2.3-.23l-.28-.32-.47-.58-9.2 6.25a.54.54 0 0 0 -.23.34.44.44 0 0 0 .08.38 32.91 32.91 0 0 0 2.71 3.27z" fill="#3d3dff"/><path d="m26.82 117.81h-.05a.32.32 0 0 1 -.26-.38 27.54 27.54 0 0 0 .17-6.85.31.31 0 0 1 .29-.35.3.3 0 0 1 .34.29 28.5 28.5 0 0 1 -.17 7 .34.34 0 0 1 -.32.29z" fill="#3d3dff"/><path d="m42.22 103.9a5.71 5.71 0 0 1 -2.51-.55.33.33 0 0 1 .26-.61 5.54 5.54 0 0 0 3 .44.33.33 0 0 1 .08.66 6.37 6.37 0 0 1 -.83.06z" fill="#3d3dff"/><path d="m15.75 138.34a.18.18 0 0 1 -.12 0 .33.33 0 0 1 -.17-.43 34.11 34.11 0 0 0 2.47-9.29.34.34 0 0 1 .67.09 34.67 34.67 0 0 1 -2.54 9.46.35.35 0 0 1 -.31.17z" fill="#3d3dff"/><path d="m58.44 104.1a.32.32 0 0 1 -.31-.23.31.31 0 0 1 .2-.4l2.44-.87a.32.32 0 0 1 .41.2.32.32 0 0 1 -.2.41l-2.45.86s-.06.03-.09.03z" fill="#3d3dff"/><path d="m65.09 96.59a.25.25 0 0 1 -.2-.09 3.17 3.17 0 0 1 -1-1.68.32.32 0 0 1 .26-.37.32.32 0 0 1 .37.26 2.43 2.43 0 0 0 .77 1.29.31.31 0 0 1 0 .46.53.53 0 0 1 -.2.13z" fill="#3d3dff"/><path d="m17.76 100.78a8.19 8.19 0 0 0 3.66-3 4.77 4.77 0 0 0 -6.59-1.78 4.86 4.86 0 0 0 -2.22 5 7.91 7.91 0 0 0 5.15-.22z" fill="#50a0f0"/><path d="m14.88 101.65a9.5 9.5 0 0 1 -2.35-.32.34.34 0 0 1 -.23-.26 5.19 5.19 0 0 1 2.35-5.29 5.09 5.09 0 0 1 7 1.88.29.29 0 0 1 0 .34 8.47 8.47 0 0 1 -3.79 3.07 7.67 7.67 0 0 1 -2.98.58zm-2-.9a8.07 8.07 0 0 0 4.75-.26 7.81 7.81 0 0 0 3.37-2.66 4.61 4.61 0 0 0 -2.62-2 4.44 4.44 0 0 0 -3.42.47 4.51 4.51 0 0 0 -2.06 4.45z" fill="#3d3dff"/><path d="m24.47 103.41-3-5.52a0 0 0 0 0 0 0 8.3 8.3 0 0 1 -3.66 3 8.32 8.32 0 0 1 -5.15.23 5 5 0 0 0 .55 1.68l2.13 3.87a27 27 0 0 0 1.61 2.57l7.83-5.32a2.5 2.5 0 0 0 -.31-.51z" fill="#ff7698"/><path d="m16.9 109.45a.29.29 0 0 1 -.26-.14c-.63-.9-1.15-1.77-1.64-2.6l-2.13-3.88a5.81 5.81 0 0 1 -.6-1.79.28.28 0 0 1 .11-.29.23.23 0 0 1 .29-.06 8 8 0 0 0 5-.2 7.77 7.77 0 0 0 3.51-2.83.35.35 0 0 1 .29-.15.27.27 0 0 1 .25.17 0 0 0 0 0 0 0l3.05 5.53a3.39 3.39 0 0 0 .23.34.39.39 0 0 1 .06.26c0 .09-.06.18-.14.21l-7.83 5.32a.27.27 0 0 1 -.19.11zm-3.89-8a3.73 3.73 0 0 0 .44 1.1l2.12 3.88a25.27 25.27 0 0 0 1.43 2.27l7.31-5-.08-.15-2.82-5.11a8.56 8.56 0 0 1 -3.51 2.66 8.9 8.9 0 0 1 -4.9.34z" fill="#3d3dff"/><path d="m28.15 93.81a2.24 2.24 0 0 0 2-2.49 2.26 2.26 0 0 0 -2.5-2l-.38.09s0 0 0-.06a2.38 2.38 0 0 0 .28-.26 2.26 2.26 0 1 0 -3.28-3.12 1.47 1.47 0 0 0 -.23.31s0 0-.05 0a2.42 2.42 0 0 0 .01-.48 2.24 2.24 0 1 0 -4.48-.29v.41s0 0-.06 0a2.43 2.43 0 0 0 -.2-.35 2.27 2.27 0 1 0 -3.66 2.69l.26.29s0 0 0 0l-.37-.14a2.26 2.26 0 0 0 -1.09 4.39 1.51 1.51 0 0 0 .37.06v.14a1.69 1.69 0 0 0 -.37.15 2.26 2.26 0 0 0 2 4.07l.35-.2s0 0 .05 0-.14.23-.2.35a2.27 2.27 0 1 0 4.14 1.85 1.86 1.86 0 0 0 .12-.38h.06a1.67 1.67 0 0 0 .06.38 2.25 2.25 0 0 0 2.79 1.56 2.27 2.27 0 0 0 1.53-2.78 1.78 1.78 0 0 0 -.14-.37s0 0 .05 0l.29.26a2.27 2.27 0 0 0 2.5-3.79 1.51 1.51 0 0 0 -.34-.2v-.06a2.64 2.64 0 0 1 .49-.03z" fill="#50a0f0"/><path d="m23.17 101.18a2.9 2.9 0 0 1 -1.27-.31 2.49 2.49 0 0 1 -1.06-1.16 2.53 2.53 0 0 1 -3.19.92 2.58 2.58 0 0 1 -1.44-3 2.59 2.59 0 0 1 -3.05-1.36 2.53 2.53 0 0 1 -.12-2 2.68 2.68 0 0 1 .96-1.27 2.58 2.58 0 0 1 -1.18-1 2.62 2.62 0 0 1 -.28-2 2.55 2.55 0 0 1 1.17-1.59 2.7 2.7 0 0 1 1.52-.41 2.61 2.61 0 0 1 -.23-1.56 2.59 2.59 0 0 1 3-2.17 2.4 2.4 0 0 1 1.41.72 2.59 2.59 0 0 1 2.68-2 2.65 2.65 0 0 1 2.42 2.34 2.56 2.56 0 0 1 3.33.2 2.73 2.73 0 0 1 .81 1.82 2.92 2.92 0 0 1 -.43 1.53 2.6 2.6 0 0 1 2.41 2.32v.08a2.68 2.68 0 0 1 -.63 1.92 2.51 2.51 0 0 1 -1.33.87 2.59 2.59 0 0 1 -2.87 4.22 2.59 2.59 0 0 1 -1.8 2.78 3.09 3.09 0 0 1 -.83.11zm-2.3-2.69h.13a.31.31 0 0 1 .28.29 1.22 1.22 0 0 0 .06.35 1.85 1.85 0 0 0 .92 1.16 2 2 0 0 0 1.47.17 1.93 1.93 0 0 0 1.27-2.4c0-.09-.06-.2-.11-.32a.31.31 0 0 1 .11-.4.1.1 0 0 1 .06 0 .29.29 0 0 1 .4 0l.26.23a1.93 1.93 0 0 0 2.16-3.21 1.58 1.58 0 0 0 -.29-.17.31.31 0 0 1 -.17-.38v-.06a.3.3 0 0 1 .34-.23h.35a2 2 0 0 0 1.73-2.14v-.09a2 2 0 0 0 -2.13-1.7 1.47 1.47 0 0 0 -.32.06.3.3 0 0 1 -.37-.18.36.36 0 0 1 .08-.41 1 1 0 0 0 .26-.23 2 2 0 0 0 .55-1.39 1.86 1.86 0 0 0 -.63-1.44 1.91 1.91 0 0 0 -2.73.06c-.08.09-.14.2-.2.26a.32.32 0 0 1 -.4.12.34.34 0 0 1 -.2-.38 1.55 1.55 0 0 0 .05-.35 1.93 1.93 0 1 0 -3.85-.23v.35a.33.33 0 0 1 -.23.35.35.35 0 0 1 -.4-.18l-.17-.29a1.94 1.94 0 0 0 -3.49.84 2 2 0 0 0 .34 1.45 1.79 1.79 0 0 0 .23.26.32.32 0 0 1 .06.4.34.34 0 0 1 -.4.15c-.09 0-.21-.09-.32-.12a1.9 1.9 0 0 0 -1.57.31 2.06 2.06 0 0 0 -.89 1.19 1.86 1.86 0 0 0 .23 1.47 2.05 2.05 0 0 0 1.18.9c.11 0 .23 0 .32.06a.3.3 0 0 1 .28.29.31.31 0 0 1 -.23.35 1.68 1.68 0 0 0 -.31.12 2 2 0 0 0 -1 1.12 1.9 1.9 0 0 0 .12 1.5 2 2 0 0 0 2.59.9 1 1 0 0 0 .29-.18.33.33 0 0 1 .43 0 .3.3 0 0 1 .06.4 2 2 0 0 0 -.17.29 2 2 0 0 0 1 2.58 1.94 1.94 0 0 0 2.56-1c0-.08.08-.2.11-.31a.27.27 0 0 1 .3-.19z" fill="#3d3dff"/><path d="m10.63 153.52 5.49 12a2 2 0 1 1 -3.68 1.5l-4.44-12.43a1.43 1.43 0 0 1 .81-1.82 1.5 1.5 0 0 1 1.82.75z" fill="#50a0f0"/><path d="m14.31 168.67a2.09 2.09 0 0 1 -.92-.2 2.26 2.26 0 0 1 -1.24-1.33l-4.49-12.41a1.76 1.76 0 0 1 1-2.22 1.73 1.73 0 0 1 2.27.89l5.5 12a2.33 2.33 0 0 1 -1.21 3.13 2.43 2.43 0 0 1 -.91.14zm-4.98-15.67a1.31 1.31 0 0 0 -.43.08 1.12 1.12 0 0 0 -.6 1.42l4.48 12.4a1.61 1.61 0 0 0 .9 1 1.64 1.64 0 0 0 1.32 0 1.54 1.54 0 0 0 .89-.93 1.67 1.67 0 0 0 0-1.3l-5.49-12a1.22 1.22 0 0 0 -1.07-.67z" fill="#3d3dff"/><path d="m14.83 173.73a.87.87 0 0 0 .89-.64l.83-2.83a1.62 1.62 0 1 0 -3.13-.15l.58 2.89a.89.89 0 0 0 .83.73z" fill="#c0ff6a"/><path d="m14.86 174.05h-.06a1.22 1.22 0 0 1 -1.12-1l-.58-2.89a2 2 0 0 1 .43-1.65 1.94 1.94 0 0 1 3.34 1.8l-.87 2.84a1.24 1.24 0 0 1 -1.14.9zm.14-5.53a1.33 1.33 0 0 0 -1 .47 1.31 1.31 0 0 0 -.29 1.1l.58 2.89a.56.56 0 0 0 1.09.05l.84-2.83a1.33 1.33 0 0 0 -.18-1.13 1.39 1.39 0 0 0 -1-.55z" fill="#3d3dff"/></svg>